<?xml version='1.0' encoding='utf-8'?>
<svg xmlns:xlink="http://www.w3.org/1999/xlink" xmlns="http://www.w3.org/2000/svg" viewBox="0 0 222.23 291.88"> <defs> <filter id="b"> <feGaussianBlur stdDeviation=".48009"/> </filter> <filter id="h" x="-.31546" y="-.0676" width="1.6309" height="1.1352"> <feGaussianBlur stdDeviation=".56333"/> </filter> <filter id="g" x="-.14941" y="-.10011" width="1.2988" height="1.2002"> <feGaussianBlur stdDeviation="1.14757"/> </filter> <filter id="f" x="-.12276" y="-.11732" width="1.2455" height="1.2346"> <feGaussianBlur stdDeviation="2.07179"/> </filter> <linearGradient id="a"> <stop stop-color="#e6e6e6" offset="0"/> <stop stop-color="#fff" offset=".57608"/> <stop stop-color="#848484" offset="1"/> </linearGradient> <linearGradient id="c" x1="37.586" x2="49.066" gradientUnits="userSpaceOnUse"> <stop stop-color="#e9e967" offset="0"/> <stop stop-color="#808000" offset="1"/> </linearGradient> <linearGradient id="e" x1="-120.67" x2="-79.506" y1="571.39" y2="587.62" gradientTransform="matrix(1.1829 .65417 -.65417 1.1829 516.75 -75.329)" gradientUnits="userSpaceOnUse" xlink:href="#a"/> <linearGradient id="d" x1="-113.69" x2="-74.79" y1="555.17" y2="592.16" gradientTransform="matrix(-1.1795 .66032 .66032 1.1795 -432.76 -73.948)" gradientUnits="userSpaceOnUse" xlink:href="#a"/> </defs> <g transform="translate(369.83 -365.91)" fill-rule="evenodd"> <path d="m-278.73 502.5-25.098 13.6s-9.5445 53.428-16.281 78.684-17.321 39.828-12.51 40.799 13.472 1.9428 18.284 0.97141 5.7737 15.543 9.6229-7.7713 7.6983-82.57 16.359-100.06 10.585-27.2 9.6229-26.228z" fill="#b0002d"/> <path d="m-283.11 522.7-27.877 107.17s30.355 0 37.17 1.8585 9.9119 15.487 6.1949 0-1.239-59.471 0-77.437 0.61949-29.116 0.61949-29.116l-16.107-2.478z" fill="#b0002d"/> <path d="m-330.29 630.67s2.4093-0.21902 5.6946 0.8761 5.0375 2.1902 8.1039 1.5332 13.141-2.4093 16.427-2.8473 20.807-1.9712 23.655-1.5332 8.1039 1.5332 8.1039 1.5332 2.1902 2.4093 3.7234 2.8473 8.1039 0.21902 8.1039 0.21902l-0.65707 3.2854s-4.1615 2.4093-7.8849 2.1902-5.9136-4.1614-8.98-4.8185-20.15 0.43805-30.006 1.5332-16.208 3.2854-20.15 2.8473-8.761-2.1902-8.761-2.1902l2.6283-5.4756z" fill="#b38200" stroke="#000" stroke-linecap="round" stroke-linejoin="round" stroke-width=".5"/> <path d="m-302.25 516.12-16.646 9.7874s-14.894 50.663-21.026 73.442-15.77 35.92-11.389 36.796 12.265 1.7522 16.646 0.87609 5.2566 14.018 8.761-7.0088 7.0088-74.468 14.894-90.238 9.637-24.531 8.761-23.655z" fill="#e60040"/> <path d="m-268.86 534.47c0 2.478-7.4339 73.1-3.0975 84.87s4.9559 13.629 4.9559 13.629l22.921-0.61949s-13.009-43.984-13.009-55.135 6.1949-27.877 1.239-35.311-11.77-7.4339-13.009-7.4339z" fill="#b0002d"/> </g> <g transform="translate(249.63 -425.6)"> <path d="m-180.64 683.85c2.5516-18.74-1.0288-37.48 3.0763-56.221l-8.5676-18.949-4.7326 34.322-15.124-4.8656c0.37326-17.853 3.6704-41.573 14.587-48.562l16.806 2.7448 25.801-44.248 21.903 38.352 14.566 7.5611c3.5564 2.2125-4.6602 9.1482 4.4184 17.114 3.2005 2.8082 9.6439-1.0798 22.999-6.0001l4.0518 14.625c-7.0603 4.1841-23.546 14.171-30.505 13.854-3.0276-0.138-6.2882-3.1066-7.6689-4.152-33.321-25.231-11.933-6.1791-8.9012 10.849-4.5557-7.3111 4.394-29.209 5.7775-33.841 2.2593-7.5642 11.376-11.458 8.6963-7.1596l-14.717 79.531-20.08-39.672-32.387 44.717z" fill="#ffb380" stroke="#000" stroke-linecap="round" stroke-linejoin="round" stroke-width=".96142"/> <path d="m-90.29 708.02c2.8583 11.668-20.33 8.3745-34.231 5.0035-17.733 6.5466-17.779 4.331-17.777-3.004 0.00241-8.192 5.1667-15.643 23.41-15.643s26.375 3.8587 28.598 13.643z" fill="#502d16" stroke="#000" stroke-width=".73572"/> <path d="m-142.31 712.28c17.676 0.23062 39.341-0.41708 52.962 0.70638l-1.6262 3.0456-21.116 0.10956c-6.2499-3.0228-16.245-0.96184-18.334 0.59684l-11.886 0.0086v-4.467z" fill="#803300" stroke="#000" stroke-linecap="round" stroke-linejoin="round" stroke-width=".45498"/> <path d="m-179.29 626.07 61.194 9.0096 12.058 60.915c-2.4779 1.3537-12.092 3.9896-16.24 7.4718-5.7019 4.7866-15.76 4.2831-21.438-1.1336l-1.6913-40.345-15.841 45.264c-40.266 7.8526-30.728-20.607-27.205-31.275l9.1632-49.908z" fill="#000080" stroke="#000" stroke-linecap="round" stroke-linejoin="round" stroke-width=".91585"/> <path transform="translate(120.21 59.693)" d="m-272.58 625.54c-2.478 7.4339 0.92923-0.30975-5.2657 12.7s-3.4072 14.558-3.4072 14.558-15.487-7.4339-23.541-6.1949-12.39 8.0534-11.77 1.239-0.61949-9.6021 2.478-17.656c0.22714-5.86-0.11761-12.938 3.1819-12.747 17.859 1.0352 22.832-1.6458 38.324 8.1009z" fill="#502d16" fill-rule="evenodd" stroke="#000" stroke-linecap="round" stroke-linejoin="round" stroke-width=".5"/> <path d="m-161.71 709.09c0 6.5181 1.9354 7.6593-14.044 7.6593s-22.917-0.18382-22.917-6.7019 4.5255-12.446 20.505-12.446 16.456 4.9709 16.456 11.489z" fill="#502d16" stroke="#000" stroke-width=".61419"/> <path d="m-197.92 712.7h36.226v3.5982h-36.226z" fill="#803300" stroke="#000" stroke-linecap="round" stroke-linejoin="round" stroke-width=".61419"/> <path d="m-168.81 583.89 46.81-1.3573c14.558 8.3481 6.4758 2.4449 20.571 28.537-5.2399 1.9124-8.7334 9.5592-13.973 8.672l-2.5777-12.842 4.3538 38.461c-16.26 1.5203-46.159 4.9831-73.828-2.4413-3.2577-9.5341 8.6902-29.787 10.39-35.319l-9.7538 20.486c-12.718 0.93901-16.474-6.298-23.2-9.0489 15.207-28.863 18.611-39.454 41.207-35.147z" fill="#183973" stroke="#000" stroke-linecap="round" stroke-linejoin="round" stroke-width=".91585"/> <path transform="translate(120.21 59.693)" d="m-315.32 527.04s-3.0975-4.9559 9.9119-1.239 22.921 5.5754 31.594 9.9119 14.868 9.9119 14.868 9.9119 1.9344 0.99926 3.1009-2.3785c0.99049-2.8681 0.73595-9.9291 5.572-12.489 10.531-5.5754 14.868 0.61949 11.77-5.5754s-4.9559-6.8144-4.9559-6.8144-12.39 9.9119-26.638 6.8144-24.16-7.4339-31.594-4.9559-13.629 6.1949-13.629 6.8144z" fill="#b0002d" fill-rule="evenodd"/> <path transform="matrix(.91927 .093864 -.095589 .90269 -228.01 29.228)" d="m114.77 604.68h14.018c-33.885 14.884-28.266 44.637-20.571 43.293-8.0837-0.07014-11.47-3.6243-16.225-5.6213-1.1111-16.961 5.3639-34.566 22.778-37.672z" fill="#73ade7" filter="url(#f)" opacity=".51053"/> <path transform="matrix(1.5147 .22844 -.23069 1.4999 -360.12 -369.29)" d="m216.23 616.63 3.9382-1.5288c9.4929 7.1736 0.67301 16.043 5.2507 27.036l-16.262 0.72836 7.0733-26.235z" fill="#73ade7" filter="url(#g)" opacity=".42105"/> <path d="m-214.53 507.92c6.5726 21.715 4.3601 36.468 11.455 54.15 7.189 17.916 53.299 27.22 61.712 27.875 8.2796-0.93665 31.192-18.041 34.318-32.65l10.568-49.375c-28.073-57.571-60.53-60.193-118.05 0z" fill="#ffb380" fill-rule="evenodd" stroke="#000" stroke-width=".76632"/> <path d="m-128.52 514.87 0.92923 21.372c11.276 3.511 14.624 9.3204 21.372-2.1682-0.12626-16.529-3.1268-29.297-22.302-19.204z" fill="#fff" fill-rule="evenodd" stroke="#000" stroke-linecap="round" stroke-linejoin="round"/> <path d="m-148.65 516.11c-9.7387-5.5563-17.114-5.088-25.292-1.2004-18.438 26.289 3.2359 29.919 24.053 22.883l1.239-21.682z" fill="#fff" fill-rule="evenodd" stroke="#000" stroke-linecap="round" stroke-linejoin="round"/> <path transform="matrix(.11333 -.024844 .032756 .14019 -214.01 435.08)" d="m327.29 695.78a84.853 91.924 0 1 1-169.71 0 84.853 91.924 0 1 1 169.71 0z" fill="#0a550a" filter="url(#b)" opacity=".74211" stroke="#000" stroke-width="9.5"/> <path d="m-168.97 519.46c-1.9359 2.5812-1.4258 6.714-2.5576 5.6504s-1.4034-4.6259 0.53253-7.2071 4.4143-3.2627 5.5462-2.1991-1.5852 1.1746-3.5211 3.7558z" fill="#fff" opacity=".86316" stroke="#fff9f9" stroke-width="1.1212"/> <path d="m-155.84 531.39c0.40094-1.288-0.24494-2.6438 0.27826-2.4907s1.0199 1.3547 0.61898 2.6427-1.2087 2.013-1.7319 1.8599 0.43371-0.72393 0.83465-2.0119z" fill="#fff" opacity=".86316" stroke="#fff9f9" stroke-width=".43079"/> <path transform="matrix(-.076738 -.024021 -.022179 .13555 -83.651 436.28)" d="m327.29 695.78a84.853 91.924 0 1 1-169.71 0 84.853 91.924 0 1 1 169.71 0z" fill="#0a550a" filter="url(#b)" opacity=".74211" stroke="#000" stroke-width="9.5"/> <path d="m-114.15 517.88c1.3108 2.4957 0.9654 6.4916 1.7318 5.4632s0.95025-4.4727-0.36059-6.9684-2.989-3.1546-3.7555-2.1262 1.0734 1.1357 2.3842 3.6314z" fill="#fff" opacity=".86316" stroke="#fff9f9" stroke-width=".90721"/> <path d="m-123.04 529.41c-0.27149-1.2453 0.16585-2.5562-0.18842-2.4082s-0.6906 1.3098-0.41912 2.5551 0.81842 1.9463 1.1727 1.7983-0.29367-0.69995-0.56515-1.9452z" fill="#fff" opacity=".86316" stroke="#fff9f9" stroke-width=".34857"/> <path d="m-202.82 548.69c-3.3858 0.18058-5.2319-1.0648-7.7426-3.3774-6.9448-11.557-4.6987-20.421 3.2668-24.472m2.7381 5.8355c-5.3938 2.4399-6.2972 13.681 0.48004 14.466 1.894 0.21915 3.2326 1.4519 3.8208-0.33606 0.83488-2.5376-3.598-1.8197-4.1692-4.3894" fill="#ffb380" stroke="#000" stroke-linecap="round" stroke-linejoin="round" stroke-width=".78071"/> <path transform="translate(118.04 58.454)" d="m-231.69 466.02a4.1816 6.8144 0 1 1-8.3632 0 4.1816 6.8144 0 1 1 8.3632 0z" fill-rule="evenodd"/> <path d="m-138.48 425.85-7.2812 8.5312c-5.1257-3.0855-16.477-9.6353-19.344-6.1703 3.3452 4.2162 10.073 9.0606 1.245 7.6078-5.5434 0.56874-10.583-2.0762-16.226-1.5985-12.74-0.76947-25.563-1.0011-38.268 0.41101 6.65 3.0923 14.392 2.5345 21.509 3.9408 4.0469-0.23419 13.845 2.0758 5.0471 4.1211-8.1809 5.8645-18.162 5.5058-27.585 3.711-6.479-1.6586-17.687 0.6737-6.3219 4.5369 2.3206 2.7596 14.225 3.3855 6.2743 5.063-6.7634 3.4091-13.417 7.3952-18.581 13.113-2.5801 3.9069-12.036 10.154-9.6742 12.665 5.7303 2.7371 17.917-8.719 13.293 3.0686-3.3299 11.565-8.5428 23.502-5.1972 35.727 1.855 10.672 3.1579 21.802 0.18928 32.385-0.24227 3.7635-3.9402 15.518 0.73732 14.157 3.9289-4.7743 5.7248-17.236 9.1048-17.944 5.7634 5.8128 8.3879 12.876 5.6182 20.89-2.832 10.817 8.2601-10.892 12.162-1.8292 2.4015 5.0008-0.86366 12.691-2.544 18.232 2.824 2.6986 10.438-5.7492 15.344-6.4634 6.0632-4.386 13.172 3.8264 20.092 4.1873-3.2532-5.4408-3.9097-12.35-8.1929-17.051-2.7158-3.133-11.782-13.028-10.213-12.399 3.3333 5.3183 13.503 11.677 9.101 1.0993-2.3763-12.849-7.2452-25.044-10.541-37.64 2.2181-2.0254 8.209 14.171 7.5209 2.8307 0.94061-10.556 3.408-20.928 6.7632-30.965 6.9957-0.31897 13.626 3.9399 19.587 7.332 3.5554 1.3173 9.1057 10.097 6.9871 1.8138-0.61033-12.348 4.5993-24.05 10.957-34.333-4.1269 11.422 3.3335 22.711 10.281 31.219-1.7252-7.5112 1.5837-12.463 8.9688-14.156-6.5517 7.9668 4.3635 14.24 10.862 16.765 11.05 5.7888-8.9094-9.1737 1.7656-11.665 8.9351-1.8334 13.142 12.156 13.797 19.918-0.68218 13.153 2.2602 0.9372 3.8049-1.9883 3.1398-5.8437 0.08772 4.2195-0.11252 7.0426-1.745 8.6295-2.222 17.81-6.7729 25.528-2.6051 5.0357-8.9217 15.205-0.45343 6.9495 3.7306 3.494-17.419 35.347-17.448 36.904 27.763-15.779 40.975-49.638 38.573-80.525-1.438-22.196-12.653-45.316-33.548-55.087v-13.688l-14.875 8.7188-6.4062-14.969z" fill="#d26f41" fill-rule="evenodd" stroke="#000" stroke-linecap="round" stroke-linejoin="round" stroke-width=".5"/> <path d="m-101.68 513.63c-4.4349-10.833-17.725-20.832-30.871-3.6196 10.425-1.1468 25.46-4.6962 30.871 3.6196z" fill="#080808" opacity=".93" stroke="#000" stroke-opacity=".81818" stroke-width=".42932"/> <path d="m-190.18 514.63c7.1816-12.086 24.02-24.127 40.074-2.984-16.328-8.5985-33.471-2.3997-40.074 2.984z" fill="#080808" opacity=".93" stroke="#000" stroke-opacity=".81818" stroke-width=".53983"/> <path transform="matrix(1.0787 -.36603 .16847 .75795 -407.4 170.2)" d="m162.39 558.78-0.51331 19.545-4.1983-4.617 4.7116-14.928z" fill="#fca" filter="url(#h)"/> <path d="m-104.66 611.8c-2.7115 1.7044-4.7676 7.3257-5.9543 11.276" fill="none" stroke="#000" stroke-width=".91585"/> <g transform="matrix(.92423 0 0 .90756 -292.8 41.044)" stroke="#000"> <g transform="matrix(-.07361 -1.0079 1.1978 .018368 -558.56 716.86)"> <path d="m104.32 654.45c3.0511 1.1584 7.1038 6.9425 8.3142 9.803 0.91572 2.1641-2.1503 10.157-3.0661 10.108-1.5122-0.08087-3.461-1.4024-2.4274-3.9279 0.24345-6.0344-3.0878-0.56175-1.4131 3.4104 0.37884 1.1458 1.4855 12.088-2.7384 5.5622 0.33539 3.3731-1.4581 7.0774-4.2539 1.8031-0.56803 3.8384-3.5495-0.1874-5.0033-1.5165-3.9361 2.9547-8.0234-8.977-7.4224-15.165 0.70901-3.2852 2.332-5.8354 4.4409-7.6392" fill="#ffb380" stroke-linecap="round" stroke-linejoin="round"/> <path d="m94.328 680.47c-0.40082-3.5172-4.0231-8.773-2.2308-12.125" fill="none" stroke-width=".65869"/> <path d="m99.296 682.44c-1.259-4.3355-2.778-10.54-1.6745-12.252" fill="none" stroke-width=".65869"/> <path d="m102.77 679.55c-1.0736-7.7502-2.0824-7.5363-1.0105-10.422" fill="none" stroke-width=".65869"/> </g> <path d="m234.26 621.58c-3.2123 4.1996-6.4247 4.8113-9.637 5" fill="none"/> <path d="m233.04 627.46-1.0264 8.8141" fill="none"/> </g> <path transform="translate(120.21 59.693)" d="m-219.9 399.6s8.761 21.902 21.902 28.911 21.902 7.8848 14.894 8.761-24.531-0.8761-24.531-0.8761 3.5044 1.7522 5.2566 14.894 1.7522 46.433 1.7522 46.433l-13.141-16.646s11.389 9.637-0.8761 22.778-15.77 20.15-14.018 14.018 4.3805-17.522 4.3805-17.522 10.513-69.212 7.0088-79.725-5.2566-20.15-2.6283-21.026z" fill="#d26f41" fill-rule="evenodd"/> <path transform="translate(120.21 59.693)" d="m-293.64 386.42s6.8144-4.956-10.531 3.717-30.355 34.072-26.019 28.497 9.9119-10.531 20.443-17.965 20.443-8.6729 20.443-8.6729l-4.3364-5.5754z" fill="#ffe75a" fill-rule="evenodd"/> <path transform="translate(120.21 59.693)" d="m-282.49 397.57s9.9119 4.956-8.0534 6.8144-30.975 16.726-26.638 14.248-0.61949-6.1949 16.107-8.0534 19.824 0.61949 21.063-4.3364-1.239-9.2924-2.478-8.6729z" fill="#ffe75a" fill-rule="evenodd"/> <path transform="translate(120.21 59.693)" d="m-255.85 392.61c9.2924-2.478 10.531 0.6195 19.824 3.0975s22.921 4.9559 8.0534 3.0975-20.443-2.478-24.78-1.239-4.9559-3.717-3.0975-4.9559z" fill="#ffe75a" fill-rule="evenodd"/> <path transform="translate(120.21 59.693)" d="m-262.66 383.94c0.61949-6.1949-1.239-16.726 1.8585-11.151s11.151 11.151 6.1949 11.151h-8.0534z" fill="#ffe75a" fill-rule="evenodd"/> <path transform="translate(120.21 59.693)" d="m-224.26 421.11s-2.478 4.9559 11.77 8.0534 21.063 2.478 18.585 3.0975-14.868 4.956-22.921 0-7.4339-10.531-7.4339-11.151z" fill="#ffe75a" fill-rule="evenodd"/> <path transform="translate(120.21 59.693)" d="m-350.01 462.61c-0.61949 6.1949-0.61949 21.682-5.5754 30.355s-7.4339 16.726-3.717 11.77 6.8144-9.9119 9.9119-16.107 3.0975-19.204 1.8585-22.921-1.8585-4.3364-2.478-3.0975z" fill="#ffe75a" fill-rule="evenodd"/> <path transform="translate(120.21 59.693)" d="m-335.15 400.66c-3.0975 0.61949-4.3364 3.717-16.726 10.531s-22.921 12.39-15.487 10.531 10.531-3.717 16.107-4.9559 8.0534-1.8585 12.39-8.0534 4.3364-6.8144 3.717-8.0534z" fill="#ffe75a" fill-rule="evenodd"/> <path transform="translate(120.21 59.693)" d="m-322.14 437.21c-1.239 9.2924-3.0975 8.0534-1.8585 17.965s10.531 34.692 3.0975 19.204-11.151-16.726-9.2924-25.399 7.4339-12.39 8.0534-11.77z" fill="#ffe75a" fill-rule="evenodd"/> <path transform="translate(120.21 59.693)" d="m-253.99 411.2s-6.1949 3.0975-6.1949 10.531 3.0975 17.346 3.0975 11.77-1.239-3.717 1.8585-8.6729 6.1949-6.8144 8.6729-7.4339-0.6195-0.61949-3.717-2.478-4.9559-3.0975-3.717-3.717z" fill="#ffe75a" fill-rule="evenodd"/> <path transform="translate(120.21 59.693)" d="m-211.87 469.43c1.239 4.3364 1.8585 3.0975 5.5754 13.009s5.5754 14.248 0.61949 5.5754-7.4339-8.6729-8.0534-13.629 1.8585-4.3364 1.8585-4.956z" fill="#ffe75a" fill-rule="evenodd"/> <path transform="translate(120.21 59.693)" d="m-324.61 501.64s4.3364 10.531 0 16.107-10.531 11.77-1.8585 6.1949 11.77-8.0534 11.77-8.0534l-9.9119-14.248z" fill="#ffe75a" fill-rule="evenodd"/> <path transform="translate(120.21 59.693)" d="m-335.15 484.92c0 2.478-0.61949 14.248-3.0975 17.965s-7.4339 11.151-3.0975 5.5754 7.4339-3.717 8.0534-9.2924-0.61949-13.629-1.8585-14.248z" fill="#ffe75a" fill-rule="evenodd"/> <path transform="translate(120.21 59.693)" d="m-341.96 428.54c4.3364 4.3364 8.0534 6.1949 8.0534 6.1949s17.346-6.1949 6.8144-6.8144-14.868 0-14.868 0.61949z" fill="#ffe75a" fill-rule="evenodd"/> <path transform="translate(120.21 59.693)" d="m-281.87 382.7c1.8585 5.5754-2.478 14.868 4.3364 11.77s18.585 0 8.0534-4.3364-13.009-6.8144-12.39-7.4339z" fill="#ffe75a" fill-rule="evenodd"/> <path transform="translate(120.21 59.693)" d="m-283.11 368.45c4.9559 3.0975 16.726 7.4339 10.531 8.6729s-9.9119 3.717-9.2924 1.239-1.239-9.9119-1.239-9.9119z" fill="#ffe75a" fill-rule="evenodd"/> <path transform="translate(120.21 59.693)" d="m-321.52 375.27c3.0975 0.61949 21.063 5.5754 18.585 5.5754s-0.61949 8.6729-8.6729 2.478-11.77-8.0534-9.9119-8.0534z" fill="#ffe75a" fill-rule="evenodd"/> <path transform="translate(118.35 58.454)" d="m-275.67 468.34a5.5754 7.279 0 1 1-11.151 0 5.5754 7.279 0 1 1 11.151 0z" fill-rule="evenodd"/> <path transform="translate(120.21 60.002)" d="m-277.53 466.95a2.9426 4.0267 0 1 1-5.8852 0 2.9426 4.0267 0 1 1 5.8852 0z" fill="#fff" fill-rule="evenodd"/> <path transform="matrix(.73684 0 0 1 90.845 58.144)" d="m-277.53 466.95a2.9426 4.0267 0 1 1-5.8852 0 2.9426 4.0267 0 1 1 5.8852 0z" fill="#fff" fill-rule="evenodd"/> <path transform="translate(120.21 59.693)" d="m-312.22 609.74s-5.2657 4.6462-4.0267 8.9826 0.92924 6.8144 0.92924 6.8144-2.7877 0.61949 9.2924 0.61949 17.965-0.61949 23.231 0.61949 7.7436 2.7877 9.2924 3.4072 4.6462 2.1682 4.9559-4.0267 1.239-7.7437 1.239-7.7437-13.629-6.8144-21.992-8.0534-21.372-0.92924-21.372-0.92924l-1.5487 0.30974z" fill="#502d16" fill-rule="evenodd" stroke="#000" stroke-linecap="round" stroke-linejoin="round" stroke-width=".5"/> <path transform="translate(120.21 59.693)" d="m-266.38 619.96s0.30975 11.461 0.61949 17.036 0.92924 8.6729 2.1682 11.77 0.30974 1.5487 2.478-0.92924 11.151 0.6195 11.151 0.6195 6.1949-4.0267 13.939-6.8144 11.151-4.9559 11.151-4.9559l-4.0267-17.036-37.479 0.30974z" fill="#502d16" fill-rule="evenodd" stroke="#000" stroke-linecap="round" stroke-linejoin="round" stroke-width=".5"/> <path transform="translate(120.21 59.693)" d="m-267.21 615.99s0.8761 6.1327 0.43805 10.951-3.0663 6.1327 0 5.2566 3.9424-3.5044 10.513-3.5044h19.274c9.637 0 14.018 1.7522 13.579 0s-2.6283-7.8848-3.5044-11.827 9.199-3.9424-3.5044-3.9424-36.358 3.0663-36.796 3.0663z" fill="#502d16" fill-rule="evenodd" stroke="#000" stroke-linecap="round" stroke-linejoin="round" stroke-width=".5"/> <path transform="translate(120.21 59.693)" d="m-326.78 546.78-6.1327 11.389c5.676 8.9307 16.349 11.875 26.283 13.141l5.2566-10.075s-8.3229-1.7522-13.141-6.5707-12.703-8.761-12.265-7.8849z" fill="#fc4" fill-rule="evenodd" stroke="#000" stroke-linecap="round" stroke-linejoin="round" stroke-width=".5"/> <path transform="translate(120.21 59.693)" d="m-223.4 542.4c-1.9283 3.1274-9.7692 6.0251-14.456 7.4468l1.0951 15.113c2.0737-2.1532 6.7107-3.9722 7.0824-6.6761 0.40728-2.9624 4.0972-4.6822 9.5634-6.4654-0.70099-3.4459-0.30432-7.1121-3.2854-9.418z" fill="#fc4" fill-rule="evenodd" stroke="#000" stroke-linecap="round" stroke-linejoin="round" stroke-width=".5"/> <path transform="translate(120.21 59.693)" d="m-248.81 529.26 1.3141 4.8185s-3.5044-2.1902-5.2566 5.2566 0.21903 9.637-3.2854 9.637c-10.01 2.5862-2.1244-2.826-10.294-7.4468-8.3229-3.9424-11.389-2.6283-11.827-4.8185s-0.8761-5.6946-0.8761-5.6946 7.4468 2.6283 13.579 5.2566 5.6946 6.1327 7.4468 1.7522 9.199-9.637 9.199-8.7609z" fill="#fc4" fill-rule="evenodd" stroke="#000" stroke-linecap="round" stroke-linejoin="round" stroke-width=".5"/> <path transform="translate(120.21 59.693)" d="m-296.56 534.96c1.7522-2.1902 7.0088-3.5044 7.0088-3.5044l2.6283 2.6283c-4.1448 0.09491-9.8282 4.3143-13.141 7.8848-6.2021-2.851-12.564-5.1783-17.084-9.199 0 0 0.43805-3.5044 3.5044-5.2566s5.4756-1.7522 5.4756-1.7522c-12.189 4.5134 6.8467 14.301 11.608 9.199z" fill="#fc4" fill-rule="evenodd" stroke="#000" stroke-linecap="round" stroke-linejoin="round" stroke-width=".5"/> <path transform="translate(120.21 59.693)" d="m-242.24 531.45s1.7522 2.6283 4.3805 2.6283c6.0725-2.0488 7.9652-2.6066 2.1902-7.8849l5.2566 2.6283c1.7522 0.8761 4.5995 4.8185 2.4093 5.2566-5.6453 3.82-8.4507 6.6789-11.608 1.7522-3.0663-2.1902-3.0663-3.9424-2.6283-4.3805z" fill="#fc4" fill-rule="evenodd" stroke="#000" stroke-linecap="round" stroke-linejoin="round" stroke-width=".5"/> <path transform="translate(120.21 59.693)" d="m-234.79 580.51s3.9424 2.1902-3.0663 3.5044-38.11 2.6283-44.681 2.1902-17.084-0.8761-21.026-3.0663-6.1327-6.1327-6.1327-6.1327l1.3141 9.637s5.2566 1.7522 14.018 2.1902 35.044 0.8761 46.433 0.43805 16.208-1.7522 16.208-1.7522l-3.0663-7.0088z" fill="#b5deff" fill-rule="evenodd" stroke="#000" stroke-linecap="round" stroke-linejoin="round" stroke-width=".5"/> <g transform="matrix(-1.0586 .2853 .29183 1.0206 -151.57 -125.69)" stroke="#000"> <path d="m236.85 681.48c2.359 1.311 5.5206 2.5565 6.982 6.155 1.9017 3.7675 3.3658 8.5962 1.6254 11.476-0.84979 1.4061-1.4523 2.9466-2.2568 5.3104-0.37148 1.0915-2.4628 1.938-4.4676 1.8992-0.63441-0.01228-1.3792 0.39619-2.0828 0.46865-1.109 0.11421-1.7194-0.50015-2.5107-0.51821-6.9322-0.15825-2.8673-4.3236-2.3353-6.5977 1.0366-4.4308-1.1616-8.5087-2.9718-2.8161-0.41892 1.3174 0.82213 1.0738 1.6258 3.1921 0.16492 0.43467-0.44861 4.0338-2.1178 2.794-5.7283-4.2551-4.5546-9.3721-4.0525-16.681" fill="#ffb380" stroke-linecap="round" stroke-linejoin="round" stroke-width=".96927"/> <path d="m240.16 694.37v6.0232l-1.6427 5.8041" fill="none"/> <path d="m243.34 692.94 0.76659 6.5707-0.43805 3.2854" fill="none"/> <path d="m236.33 696.12-0.65707 5.2566-1.5332 4.709" fill="none"/> </g> <path transform="translate(120.21 59.693)" d="m-351.75 630.89-1.7522 4.3805c4.9457 5.0171 13.629-0.26817 24.093 7.4468 1.9727-2.3356 3.5398-4.8335 2.6283-8.3229-5.3978-0.33778-21.221 1.4874-24.969-3.5044z" fill="#fc4" fill-rule="evenodd" stroke="#000" stroke-linecap="round" stroke-linejoin="round" stroke-width=".5"/> <g transform="matrix(.2106 0 0 .31696 -211.66 456.63)" stroke="#000" stroke-width="3.8704"> <path d="m317.5 375.22c-55.5-1.7357-98.502 20.552-100.36-15.357-1.9002-36.777 40.443-22.487 97.5-31.786 59.141-9.6389 108.92-56.599 116.78 7.7321s-78.827 36.718-113.93 39.411z" fill="#fff"/> <path d="m431.43 335.93c-4.3056 1.5532-13.836 0.44988-21.899 2.4269-7.5764 1.8579-18.689 8.2821-23.013 8.106-9.0246-0.36751-15.764-3.2765-23.622-1.7563-15.358 2.9709-21.707 12.95-33.61 6.9376" fill="none"/> </g> <g transform="matrix(.97543 .22033 -.22033 .97543 19.081 9.8116)" fill-rule="evenodd"> <path d="m45.815 585.91-1.9833-141.76s-9.8206 10.837-11.519 15.639-2.7579 129.57-2.7579 129.57l16.26-3.4477z" fill="url(#e)"/> <path d="m41.61 584.83 1.756-139.99s9.3667 8.9984 11.09 13.792 3.4318 129.56 3.4318 129.56l-16.278-3.363z" fill="url(#d)"/> <path d="m26.573 584.11 34.486-0.11244-2.2514 9.0734-30.148 0.09677-2.0863-9.0577z" stroke="#000" stroke-linecap="round" stroke-linejoin="round" stroke-width=".67588"/> <path d="m34.23 626.46c5.9912 0.58924 11.982 0.68969 17.974-0.46528l-1.1116 8.2999c-5.7237 1.9057-10.957 1.3582-16.103 0.37783l-0.75879-8.2124z" stroke="#000" stroke-linecap="round" stroke-linejoin="round" stroke-width=".67588"/> <path d="m38.236 591.39-0.3118 35.67c3.361 2.1062 6.5029 3.9444 9.8639 0.24888l0.93988-36.035c-3.2564-2.1302-6.6551-2.9786-10.492 0.11555z" fill="url(#c)" stroke="#000" stroke-linecap="round" stroke-linejoin="round" stroke-width=".67588"/> </g> <path transform="translate(-249.63 425.6)" d="m162.3 177.12c8.1238-4.9831 12.784-2.0042 18.179-0.43804-0.39877 3.3471-3.774 3.1224-7.0088 3.0663 0 0-1.3141 2.1902-4.8185 3.5044" fill="#ffb380" fill-rule="evenodd" stroke="#000" stroke-linecap="round" stroke-linejoin="round"/> </g> </svg>