<?xml version='1.0' encoding='utf-8'?>
<svg xmlns="http://www.w3.org/2000/svg" viewBox="0 0 428.15 642.29"> <g transform="translate(-15.937 -86.625)"> <path d="m255.875,86.625c-4.42271.01983-7.54723,1.89928-10.71875,3.46875-2.4024,1.18886-3.51308,1.87229-4.375,2.375-1.97533-.08206-16.14226-.6875-20.25-.6875-2.12639,0-3.01167.56194-4.1875,1.09375s-2.39722,1.18907-3.71875,1.96875c-2.64305,1.55936-5.63508,3.56641-8.625,5.6875s-5.94844,4.34027-8.375,6.28125-4.11821,3.29076-5.53125,4.96875c-2.78879,3.3117-2.10171,5.8161-1.96875,8.5625s.59221,5.69809 1.125,8.53125c.86651,4.60776 1.61302,7.27913 2.03125,8.84375-1.11135,1.89717-2.13621,3.82432-3.09375,5.75-.21333.0927-.2638.0333-.625.25-2.30765,1.38458-2.2352,2.04631-2.9375,3.0625s-1.39744,2.15958-2.03125,3.375-1.18976,2.44911-1.59375,3.84375c-.202.69732-.37978,1.41238-.375,2.5 .005,1.08762.23615,3.07642 2.09375,4.5625 .42554.34044.78849.50706 1.1875.75 .24642,2.76475.56811,5.06988.8125,6.3125-.0604.18397-.0617.16971-.125.375-.30059.97511-.75593,1.68034-.71875,3.875 .0129.7635.15949,1.43796.375,2.0625-.9331,1.0985-1.85152,2.11569-2.84375,3.625-2.89467,4.40315-5.87118,10.82064-4.21875,18.0625 .72742,3.18797 1.84069,7.3032 2.96875,11.46875-.39083.86239-.92522,2.09662-1.46875,2.5625-1.72812,1.48125-1.73776,2.46663-1.96875,3.28125s-.33519,1.53261-.4375,2.34375c-.20463,1.62228-.32108,3.52236-.375,5.6875-.10783,4.33029-.0126,9.7326.15625,15.15625s.40686,10.85989.59375,15.09375c.0934,2.11693.16861,3.92595.21875,5.28125s.0373,2.59073.0625,2.1875c-.0942,1.50678.0813,2.58042.34375,3.53125l-16.75,17.40625a5.03183,5.03183 0 0,0 -1.03125,5.375c-.66683,1.43438-1.10667,3.06039-.78125,4.6875 .49779,2.48892 1.42365,2.98714 2.1875,3.8125s1.5738,1.56731 2.5,2.34375c.85354.71553 1.86203,1.40757 2.8125,2.125a5.03183,5.03183 0 0,0 0,.0312c-.27318.56121-.1548.33878-.0312.0937 .038-.0754-.0755.1849 0,.0312-.18518.37208-.40874.7356-.5625,1-.004.006.004.025 0,.0312-.0146.0239-.0167.007-.0312.0312-.008.0127.008.0183 0,.0312s-.0243-.0116-.0312,0a5.03183,5.03183 0 0,0 0,.0312c-.1853.31067-.34791.48176-.3125.4375-.46207.57778-.69751,1.17257-.6875,1.15625h-.0312c-.007.0153.007.0469 0,.0625-.67379,1.44265-.63742,4.17743.5,5.75a5.03183,5.03183 0 0,0 .0312.0625c.57921.77774.74847.8209.65625.71875-.006-.007.0408.0715.0312.0625l.0312-.0312c1.37189,1.31365 2.33044,1.52925 3.15625,1.78125h.0312c-.0331-.008.21444.0859.75.21875 .47466.11716.76254.16549.875.1875l.65625.125a5.03183,5.03183 0 0,0 .0312,0c.25855.0429.48591.0614.71875.0937h.0312c.42389.0598.82783.11716 1.1875.15625 .5101.0539 1.00243.11705 1.53125.15625 1.0684.0822 1.18933.0587 2.03125.0937-2.67969,9.86709-6.4044,23.9431-9.0625,36.21875-.76891.51004-2.69631,1.69527-3.28125,4.59375-.57097,2.82927-1.00888,5.28434-1.3125,7.21875-.15181.96721-.27524,1.79272-.34375,2.5625-.0269.30267.0565.80899.0312,1.09375a5.03183,5.03183 0 0,0 0,.0312 5.03183,5.03183 0 0,0 .0625,1.625c.004.0179-.004.013 0,.0312a5.03183,5.03183 0 0,0 0,.0312 5.03183,5.03183 0 0,0 .0312.0937c.0163.0693.0459.088.0625.15625a5.03183,5.03183 0 0,0 .0625.21875 5.03183,5.03183 0 0,0 .21875.59375c.35417,1.23101.75658,2.2538 1.15625,3.09375-.34571.98669-.72913,2.14826-.96875,3.40625-.50184,2.63467 1.13871,4.9984 2.25,5.90625 .11019.09.17487.0767.28125.15625-.29761,1.68376-.0787,2.63879.25,3.34375-1.77809.5968-3.71184.91671-5.96875,3.625-2.16644,2.59973-2.19108,4.85629-2.28125,7.03125-.0728,1.75515.10869,3.36067.59375,5.0625 .0003.0646-.001.34384-.0312.71875-.0604.74982-.18694,1.89237-.375,3.25-.37613,2.71527-.95582,6.2752-1.5625,9.78125-1.13673,6.56923-2.22547,12.18721-2.375,12.96875l-1.75,2.875c-1.24815,2.02826-1.20267,3.60032-1.15625,5.0625s.28081,2.83201.65625,4.15625c.26838.94664.70894,1.85032 1.15625,2.75-2.03743,2.26063-4.24656,4.61463-5.46875,6.28125-1.58802,2.16548-1.89744,3.78226-2.625,6.15625s-1.45192,5.15678-2.0625,7.875-1.11314,5.35659-1.4375,7.5625c-.16218,1.10295-.29261,2.0766-.34375,3-.0256.4617-.0336.90374 0,1.4375 .0292.46461.10435,1.12183.53125,2.125l-39.90625,36.375-.25-2.40625 10.28125-9.40625a5.03183,5.03183 0 0,0 1.59375-4.21875l-4.6875-47.75a5.03183,5.03183 0 0,0 -3.2811-4.21815l-5.625-2.0625a5.03183,5.03183 0 0,0 -1.8125-.3125l-37.40625.65625a5.03183,5.03183 0 0,0 -2.6875.84375l-34.15625,22.8125a5.03183,5.03183 0 0,0 -.8125.6875l-5.59375,5.75a5.03183,5.03183 0 0,0 -1.375,4.3125l6.96875,42.625a5.03183,5.03183 0 0,0 3.59375,4.03125l9.4375,2.65625 .6875,4.9375c-3.71418,5.20937-7.17644,11.11637-9.03125,15.0625a5.03183,5.03183 0 0,0 -.4375,1.625c-1.49199,14.51278 1.79043,24.80076 4.8125,33.96875-.21943-.6657-.21488-.6217.03125.125a5.03183,5.03183 0 0,0 3.65625,3.34375l9.0625,4.03125 1.65625,11.96875c-2.4128,1.58568-5.24956,3.54214-7.875,6.40625a5.03183,5.03183 0 0,0 -1.28125,3.96875l4.34375,39.21875a5.03183,5.03183 0 0,0 2.46875,3.78125l6.53125,3.8125a5.03183,5.03183 0 0,0 1.78125.625l38,5.65625a5.03183,5.03183 0 0,0 4.46875-1.5625l26.65625-29.1875a5.03183,5.03183 0 0,0 .8125-1.1875l3.09375-6.34375a5.03183,5.03183 0 0,0 .46875-2.8125l-4.375-36.03125a5.03183,5.03183 0 0,0 -3.0625-4.0625c-3.19848-1.32549-6.54096-1.74479-9.1875-1.84375l-.84375-7.75 9.03125-11.28125 .1875-.15625a5.03183,5.03183 0 0,0 1.84375-4.4375l-.25-2.625 45.625-42.25c.071,2.48804 1.15709,4.04129 2.09375,5.625 .59082.99896 1.23792,1.90521 2,2.75s1.27815,1.79822 3.625,2.46875l2.71875.75c-.1652,1.46469-.32053,2.90974-.46875,4.40625-.002.021.002.0415 0,.0625-2.47334-.19404-5.10516.14358-7.21875,1.875-2.25464,1.84696-3.09375,4.72778-3.09375,7.09375 0,2.11272.32938,4.28456.625,6.53125s.5625,4.5177.5625,5.5c0,2.28218.88757,3.90157 1.71875,5.15625-.69919-1.05731-.71247-1.01291.0312.0937a5.03183,5.03183 0 0,0 .0312,0c.32968.48877.56812.77997.71875.96875a5.03183,5.03183 0 0,0 0,.0312c.33399.41751.57386.62656.65625.71875-.33739-.37871-.30792-.28757.15625.21875 .36339.39582.64422.6138.75.71875 .26141.25954.54255.53939.84375.8125 .25851.23445.57117.55057 1,.90625 .32409.26874.50246.37494.75.5625 .51182,1.75279 4.43872,15.14587 8.4375,29.53125 2.05863,7.40581 4.08863,14.88145 5.5625,20.71875 .73694,2.91865 1.33091,5.44144 1.71875,7.28125 .19392.9199.33091,1.69139.40625,2.1875 .0189.12441.0257.18143.0312.28125 .002-.17648-.0714.21347-.5625.9375-.44557.65688-1.11627,1.43657-1.84375,2.21875 .15562-.16729.0933-.1092-.1875.1875-.70357.74332-1.42799,1.45145-2.0625,2.03125-.38439.35183-.39749.39899-.0625.0937-.63918.58059-1.28313,1.08833-1.78125,1.5l-.0312.0312-.8125.65625a5.03183,5.03183 0 0,0 -1.78125,4.6875l.0937.53125v.0625l.53125,3.6875-20.125,6.5625-2.03125-1a5.03183,5.03183 0 0,0 -2.90625-.46875 5.03183,5.03183 0 0,0 -.0312,0 5.03183,5.03183 0 0,0 -1.78125.28125c0,0-7.45412,2.61281-15.40625,5.84375-3.97607,1.61547-8.0879,3.38249-11.5625,5.125s-6.07886,2.73474-8.4375,5.84375c-2.08987,2.75474-2.4554,5.48257-2.78125,8.59375s-.27733,6.56379 0,9.96875 .77618,6.75065 1.59375,9.71875 1.51121,5.5839 4.21875,7.9375c2.75205,2.3923 5.35143,2.90888 9.0625,3.9375s8.19127,1.94642 12.875,2.6875c9.36745,1.48216 19.09799,2.43133 26.125.8125 9.13269-2.10391 36.49146-3.30331 49.78125-2.34375 9.92816.71683 24.63537.66741 34.40625-.46875l.25-.0312c.72769-.0869 1.36073-.2001 1.90625-.28125h.0312c1.75826-.25916 3.29863-.54282 4.78125-1 .0112-.003.02-.0278.0312-.0312 .0278-.009.066.009.0937,0 .0584-.0164.0329.0188.0937,0a5.03183,5.03183 0 0,0 .0625-.0312c.60502-.19603.92336-.36755.9375-.375s.018.005.0312,0c.30622-.12504.52343-.24769.59375-.28125a5.03183,5.03183 0 0,0 .0312,0l.34375-.1875c-.0201.0107.0467-.008.0312,0-.17798.0972-.11987.077.28125-.15625 .3027-.17602.55694-.36182.78125-.53125-1.28684.97169-.935.74108.15625-.125h.0312c.29777-.24187.66042-.61314.90625-.90625h.0312c.0125-.0151.0195-.048.0312-.0625l.0312-.0312c.001-.002-.001-.0285 0-.0312l.0312-.0312c.12847-.26993.82501-1.82852.90625-2-.0863.32652-.21892.81291-.21875.8125l-.625,1.09375c.18714-.24007.42047-.55482.6875-1.03125a5.03183,5.03183 0 0,0 .0312-.0312c.41809-.75629.75344-1.53974 1.03125-2.4375 .11379-.36719.23654-.80192.34375-1.25a5.03183,5.03183 0 0,0 0-.0312 5.03183,5.03183 0 0,0 0-.0312c.0106-.0477-.009-.0174 0-.0625 .0844-.35919.16823-.73553.25-1.1875 .24356-1.34857.43333-2.81835.53125-4.40625 .0658-1.04984.0873-2.13134.0937-3.25 .0003-.0592.00015-.0674 0-.0312 .0121-2.28629-.11187-4.73376-.34375-7.3125a5.03183,5.03183 0 0,0 0-.0312c-.00089-.01.00089-.0214 0-.0312-.47105-5.19582-1.45931-10.90885-3.0625-16.59375a5.03183,5.03183 0 0,0 0-.0312c-.006-.0222-.0249-.0403-.0312-.0625s.005-.0434 0-.0625c-.50887-1.78971-1.12134-3.54449-1.75-5.28125 .36639-.34037.75129-.58131 1.09375-1 1.56412-1.91231 2.49843-4.91563 2.03125-7.71875 .0929.55718-.0775-1.29373-.0625-3.375s.0711-4.88737.15625-8.125c.17037-6.47527.44631-14.76102.625-23.0625s.27801-16.58562.0937-23.25c-.0921-3.33219-.25418-6.25453-.53125-8.65625-.13854-1.20086-.28491-2.2567-.53125-3.28125s-.41291-1.99846-1.46875-3.40625c-1.14154-1.52205-2.5342-2.54072-3.90625-3.34375 .19492.11361.0195-.0322-.5625-.34375-.27856-.14884-.44263-.22148-.5-.25-.49453-.24628-.88528-.39746-1.125-.5-.55799-.23823-.81266-.30553-.75-.28125 .0529.0205-.20954-.12397-.84375-.34375-.18983-.066-.3541-.11864-.46875-.15625l-.0937-.0312h-.0312c-.58925-.19069-1.24718-.40941-1.96875-.59375-.4173-.1058-.64451-.1535-.65625-.15625-.20947-.0496-.35698-.0486-.5625-.0937-.0463-1.72164-.4293-2.64371-.90625-3.28125 .26981-.34296.6098-.59459.8125-1 .94968-1.89936.88711-3.97993.5-5.4375-.30679-1.15516-.78314-1.90761-1.25-2.65625l.90625-1.4375a5.03183,5.03183 0 0,0 .65625-1.625h.46875c1.53855-.0332 2.31137-.0218 3.34375-.125 3.28534-.32853 4.13349-1.89605 4.90625-3.0625 1.1261.91297 2.53018,1.78314 4.5,1.90625 1.58253.099 1.42216-.0726 2.03125-.15625s1.3467-.19967 2.21875-.34375c1.74411-.28816 3.98049-.69621 6.4375-1.15625 3.21903-.60271 6.33615-1.26494 9.5-1.9375 .59778,2.73895 1.21497,5.64253 1.75,7.90625 .43358,1.83447.83072,3.4449 1.1875,4.75s.47708,2.01665 1.15625,3.375c.15442.30885 1.11009,2.58123 1.78125,4.15625-.33699.2278-.34511.2782-.75.53125-1.80971,1.13107-3.16976,3.10391-3.65625,4.9375s-.32964,3.44297-.0625,4.8125c.53429,2.73906 1.62399,4.88307 2.15625,6.125-.038-.0887.83191,2.3788 1.71875,5.25s1.97162,6.53982 3.0625,10.34375c2.18176,7.60785 4.39708,16.06997 4.875,18.9375 1.13585,6.81513 2.20902,19.69315 1.40625,25.3125-.15599,1.09191-1.43887,4.3935-2.9375,7.28125s-3.04839,5.43568-3.9375,7.125c-.99077,1.88246-1.05515,4.74089-.0937,6.59375s2.29226,2.75774 3.4375,3.4375c.1655.0982.30483.12932.46875.21875-2.31273,6.1144-4.43113,13.59738-4.40625,25.375 .0256,12.10273.28715,20.58881 4.84375,27.4375 4.6592,7.00289 12.87809,9.68204 21.9375,11.09375s19.5581,1.59237 30.46875,2.1875c16.4987.89993 30.21203-1.37606 38.53125-5.46875l.0312-.0312c1.4878-.72754 2.79928-1.54432 3.90625-2.4375-.15927.1293-.002.0413.4375-.34375 .0645-.0561.20399-.18304.4375-.40625l.15625-.15625c1.02311-1.01298 1.97433-2.22912 2.5-3.9375 1.12222-3.64719 1.81661-9.14088 2.03125-14.78125 .10732-2.82018.0581-5.55357-.28125-8.0625-.30962-2.2894-.39527-4.61975-2.875-6.875a5.03183,5.03183 0 0,0 .28195-3.78185c0,0-3.88516-11.91588-6.40625-18.5625 .11455-.18117.26792-.26782.375-.46875 .96362-1.80821 1.15594-4.51864.3125-6.6875-1.07889-2.7743-3.35719-7.04922-4.8125-10.6875-.02-.0501-.52821-2.00995-.90625-4.375s-.76968-5.36069-1.0625-8.5c-.58565-6.27861-.84322-13.33423-.5-17.28125 .40358-4.64113 1.3132-15.4658 2.0625-25.71875 .37465-5.12647.71715-10.1144.9375-14.125s.38817-6.54259.1875-8.75c-.0228-.25056-.10445-.77052-.21875-1.3125h.0312c-.0116-.0601-.0502-.0966-.0625-.15625-.0226-.0953-.003-.11615-.0312-.21875h-.0312c-.86154-3.87225-2.64853-6.11764-4.125-7.59375-.1028-1.56149-.55729-3.43774-1.75-5.65625-.0564-.10494-.0962-.20747-.15625-.3125-.12014-.21007-.17711-.41531-.3125-.625l.0312-.0312a5.03183,5.03183 0 0,0 -.25-.375 5.03183,5.03183 0 0,0 0-.0625c-.16742-.23785-.41794-.55528-.71875-.90625-1.36341-1.59064-6.6066-7.55409-11.59375-13.1875 .13584-3.68378.0734-7.33762.125-11.0625 .90868.60281 1.59536,1.04354 2.25,1.4375 .37957,1.49236 1.00144,3.91812 1.90625,7.09375 1.05979,3.71954 2.09052,7.36854 3.46875,10.125 .6078,1.2156 1.48501,2.21425 2.34375,2.96875v.0312c-.26468-.22955-.38975-.32006.0937.0937a5.03183,5.03183 0 0,0 .0312.0312c.28653.24301.511.41422.71875.5625 .05.0359.23899.16956.5625.375 .15568.0983.33168.20006.53125.3125 .57222.32374.91586.4788 1.03125.53125a5.03183,5.03183 0 0,0 .0312,0c.15457.0696.36073.16593.65625.28125-.26793-.1062-.1862-.0587.3125.125a5.03183,5.03183 0 0,0 .0312,0c.57542.20926 1.01588.32615 1.3125.40625h.0312c.8052.22001 1.40609.26537 2.125.375 .57441.88186 1.35668,1.74524 2.5625,2.46875 1.82772,1.09663 2.61844,1.00284 3.75,1.1875s2.35475.30798 3.59375.40625c2.47801.19654 4.99554.28125 6.59375.28125 1.58038,0 2.10213-.24158 3.25-.5s2.49788-.60493 4.0625-1.03125c3.12925-.85264 6.99348-1.99259 10.84375-3.25s7.68296-2.60546 10.8125-3.90625c1.56477-.65039 2.93615-1.29732 4.15625-1.96875s2.28482-.88954 3.6875-3.09375c1.37238-2.15661 2.7579-5.13725 4-8.40625s2.47824-6.0735 2.15625-9.9375c-.20049-2.40579-.97942-3.75212-1.8125-5.375s-1.81208-3.27011-2.78125-4.78125c-1.75702-2.73956-3.19587-4.61704-3.5-5.03125-.16708-.34795-8.61837-17.97167-14.09375-29.34375 .24991-.33317.55056-.66361.71875-1 1.09817-2.19636 1.54389-4.3057 2.03125-6.53125s.81819-3.77004.90625-5.53125c.10545-2.10892-.2764-3.88771-.78125-5.1875-.072-.18524-.1328-.16609-.21875-.34375l-.8125-48.09375c1.18706-1.3548 2.30316-3.3884 2-5.75h.0625l-.0625-.40625c-.0405-.34231-.25951-2.2745-.6875-4.8125-.23208-1.37629-.50514-2.82724-.84375-4.1875s-.43175-2.40258-1.6875-4.21875c-.13153-.19023-.29391-.37359-.4375-.5625 .57206-.028 1.21726.10493 1.71875-.0312 2.22512-.60423 3.8125-2.28125 3.8125-2.28125a5.03183,5.03183 0 0,0 1.1875-3.84375c-1.00139-9.58904-7.02366-15.36043-9.90625-20.53125-1.50795-2.70497-3.72861-3.9672-5.03125-4.78125s-1.71506-1.21266-1.71875-1.21875a5.03183,5.03183 0 0,0 0-.0312l-2.34375-3.875c.30036-3.55705.59375-7.1875.59375-7.1875a5.03183,5.03183 0 0,0 -.406-2.34375l-4.75-11.15625c1.57198-.6479 2.92511-1.63104 3.71875-2.875 1.38217-2.16642 1.52477-4.1465 1.46875-5.875 .002-.0188-.002-.0435 0-.0625 .11516-1.01142.24267-2.15553.28125-3.3125 .0393-1.17865.2736-2.09335-.5-4.15625-.84207-2.24551-1.29536-2.21913-2.03125-3.125-.49039-.60366-1.11975-1.28409-1.71875-1.96875 .0882-.0278.16109-.0329.25-.0625 3.01745-1.00582 4.90344-2.66782 6.34375-4.25a5.03183,5.03183 0 0,0 2.875-4.21875 5.03183,5.03183 0 0,0 -1.71875-5.59375c-.35713-.83225-.5773-1.57021-1.125-2.5-.84713-1.43811-1.92465-3.12098-4.125-4.28125-1.64822-8.13964-6.34877-14.70387-10.53125-20.71875-.14664-1.3248-.44022-2.32095-.8125-3.53125-.48275-1.56945-1.08658-3.27854-1.6875-4.90625-1.20185-3.25543-2.40625-6.15625-2.40625-6.15625a5.03183,5.03183 0 0,0 -1.03125-1.59375c0,0-2.99346-3.44124-6.4375-5.59375-10.9569-6.84802-22.7778-12.68075-35.15625-16.96875-.0754-.0889-.13942-.1823-.21875-.28125 1.21333.53349 2.43585.94671 4.21875,1.125 .83187.0832 1.58698.67999 3.96875-.78125 .39014-.23935.75834-.77463 1.125-1.25 .59525.17228 1.26893.38259 1.8125.53125 .87652.23972 1.63607.44013 2.375.59375 .36947.0768.71456.13833 1.15625.1875s.76572.29461 2.34375-.15625c1.66353-.47529 3.56538-3.00358 3.6875-4.5s-.21683-2.11226-.40625-2.5625c-.37884-.90048-.64597-1.1956-.9375-1.59375-.58305-.79629-1.24494-1.53798-2.0625-2.4375-1.57038-1.7278-3.70935-3.91147-5.96875-6.15625l.0625.0312c3.67985,1.39448 7.35101,2.80524 10.3125,3.875 1.48075.53488 2.78205.96734 3.84375,1.3125s1.26279.638 3.125.78125c.78113.0601 1.7812.37858 3.75-.9375 .9844-.65804 2.0509-2.08694 2.28125-3.46875s-.12146-2.41107-.40625-3.0625c-1.13918-2.60572-2.00735-2.61152-3.03125-3.34375-2.04781-1.46446-4.89276-2.97658-8.59375-4.4375 .49429.19511-.54867-.35418-1.6875-1.4375s-2.59931-2.66744-4.1875-4.53125c-3.17638-3.72763-6.93004-8.62313-10.46875-13.5625s-6.86953-9.93229-9.3125-13.84375c-1.22149-1.95573-2.22476-3.63038-2.875-4.84375-.31625-.59014-.53558-1.06725-.65625-1.34375-.0322-.56216-.10779-2.54223-.125-5.1875-.0186-2.85232.001-6.39347-.0312-9.96875s-.11489-7.17759-.25-10.25-.15506-5.21451-.8125-7.5625c-.21455-.76626-.53421-1.87523-.9375-3.09375-.26996-.81167-.58705-1.66626-.90625-2.53125-.17649-.4779-.3459-.8702-.46875-1.1875 .0468.12092.009-.0653-.1875-.5625-2.78494-7.03138-7.01158-16.89546-16.28125-20.4375-4.13788-1.58113-6.81168.14666-8.71875,1.03125-.67481.31301-1.09973.50797-1.53125.71875-.21411-.0518-.38312-.10698-.6875-.1875-1.15338-.3051-2.67193-.71433-4.4375-1.15625-3.53113-.88384-8.03969-1.98953-12.5-3.03125s-8.85913-2.02207-12.1875-2.6875c-1.66418-.33272-3.05652-.56719-4.1875-.71875l-.3125-.03125-.125-.125c-1.27635-1.15711-3.23292-2.9026-5.5625-4.75-4.65915-3.69481-10.6-8.18929-17.96875-8.15625zm17.625,15.8125c-.60401,1.34616-.72892,3.11071-.34375,4.09375-.14121-.36041-1.25567-.86456.15625-3.875 .0377-.0803.14178-.13995.1875-.21875zm-88.53125,66.34375c.0358.21329.10256.38771.15625.59375l-.15625.0312c1e-005,5e-005-.0729-.41983-.0937-.59375l.0937-.0312zm164.84375,59.71875c-.0625-.009.27777.0651.40625.0937-.30162-.0105-.36492-.0878-.40625-.0937zm-159.46875,32.0625c-.0356.1388-.0559.27819-.21875.625-.21142.45032-.56202,1.29597-2,2.125v.0312c-1.11242.64089-2.53304.71991-3.4375.53125s-1.42221-.49391-1.75-.71875c-.46268-.31736-.49522-.40732-.59375-.53125l2.90625-1.62495 .34375.34375 1.28125-.21875 3.46875-.5625zm136.53125,112.84375c.013.19341.0467.37574.0625.5625l-.125-.28125c.0204-.0819.0404-.19192.0625-.28125zm2.375,6.53125c.29951.40006.54793.80129.9375,1.21875 .6715.71957 1.48818,1.48709 2.875,2.09375 .82291.35998 1.97656.46763 3.1875.375 .1259.39538.23767.81305.375,1.1875 .62126,1.69399 1.3203,3.17072 1.9375,4.3125s.82872,1.57371 1.5,2.46875c1.22778,1.63703 2.18342,1.92854 3.09375,2.375s1.82295.77511 2.8125,1.125c1.97911.69977 4.1995,1.37238 6.3125,2.03125 1.61274.50288 2.87245.96083 4.03125,1.40625-.47837,1.09638-1.05658,2.29589-1.6875,3.53125-1.48277,2.90332-2.96875,5.5-2.96875,5.5a5.03183,5.03183 0 0,0 -.5625,1.375c0,0-.53499,2.24175-.34375,5 .0736,1.06148.36667,2.33023.8125,3.625-.4641.30425-.94461.6018-1.40625.90625-2.80757,1.85157-2.96911,4.44351-3.03125,6.15625s.17444,3.2758.5,4.875c.15574.76502.42844,1.337.625,2.09375-1.40701-2.68894-2.8772-5.5366-4.03125-7.6875-.90781-1.69197-1.70762-3.1338-2.34375-4.25-.31807-.5581-.58176-1.01819-.84375-1.4375s-.20057-.57556-1.15625-1.53125c-1.51628-1.51628-2.60484-1.87371-3.65625-2.15625a5.03183,5.03183 0 0,0 -.40625-3l-3.9375-8.5625v-.0312a5.03183,5.03183 0 0,0 .28125-2.09375l-1.09375-12.6563a5.03183,5.03183 0 0,0 -2.0625-3.65625 5.03183,5.03183 0 0,0 .34375-4.34375l-.0937-.25zm24.625,62.40625c.95768.51065.97076.63881 1.59375.84375 .12661,1.0225.23529,2.05871.40625,3-.6052-1.16402-1.32589-2.54446-2-3.84375z"/> <path d="m95.801 563.89 106.57-98.636-11.904-30.044-108.84 99.203z" fill="#784421"/> <path d="m95.235 567.86 106.57-98.636-6.2356-13.038-108.84 99.203z" fill="#502d16"/> <path d="m39.114 508.9 13.038 94.101 32.312 3.4012-9.6368-93.534z" fill="#666"/> <path d="m74.827 512.87 9.6368 93.534 20.407-21.541-9.6368-89.566z" fill="#4d4d4d"/> <path d="m163.94 433.87s-10.021 10.823-12.226 13.829-6.213 21.645-5.4113 23.249 1.4029 3.2067 1.4029 3.2067 8.0168-8.0168 10.622-8.4176 8.618 16.434 8.618 16.434l21.846-6.213-5.0105-37.679z" fill="#deaa87"/> <path d="m178.56 341.5-5.6687 32.879s-1.7006 2.8344-1.984 4.2515 3.4012 5.9522 3.4012 5.9522l-3.6847 1.4172-7.3693 49.318 22.108 8.5031 24.376-82.196z" fill="#501616"/> <path d="m163.34 424.45c9.1605-1.1999 15.21 3.045 22.447 5.2109l-4.8101 10.622c-5.1699-2.474-11.543-4.6043-20.443-6.0126z" fill="#28170b"/> <path d="m170.96 396.19c9.1605-1.1999 15.21 3.045 22.447 5.2109l-4.8101 10.622c-5.1699-2.474-11.543-4.6043-20.443-6.0126z" fill="#28170b"/> <path d="m184.8 300.41s-8.4499 30.099-12.416 48.702c-0.36916 1.7315-2.6958 1.9585-3.0037 3.4841-1.1266 5.5827-1.7885 9.5776-1.5865 10.453l9.7759 4.1621c6.6285-0.52498 13.543-49.455 20.835-72.47z" fill="#c8ab37"/> <path d="m185 339.47-8.0312 21.844-9.1562 1.8125c0.85008 3.6062 2.0938 4.875 2.0938 4.875s-1.2348 3.131-1.5312 4.6875c-0.30924 1.6235 4.0938 2.4062 4.0938 2.4062 1.5094-2.4759 1.0749-7.5567 5.0938-7.875 3.174-0.25138 6.4348-11.649 9.75-25.938l-2.3125-1.8125z" fill="#504416"/> <path d="m186.98 637.17-27.78 9.046-4.3994-1.9654s-29.398 10.296-33.04 15.096-1.8961 25.704 2.3392 29.386 33.004 8.7729 43.63 6.3251 37.263-3.4583 51.256-2.448 39.215 0.36669 41.583-2.6239c3.8749-4.8937 2.6771-34.851-9.8982-52.156z" fill="#c8ab37"/> <path d="m188.18 637.16 4.8285 4.9878 24.477 16.739s14.062 10.104 20.867 9.9121 9.9176-0.41164 9.9176-0.41164c2.7692 7.8572 0.75843 16.049-0.51723 24.189 6.6523-0.47614 11.812-1.3163 12.819-2.5881 3.8749-4.8937 2.6627-34.85-9.9126-52.154z" fill="#504416"/> <path d="m307.04 653.13c-3.3843 10.22-8.4568 16.339-8.4176 34.873 0.0253 11.958 0.56505 19.476 4.0084 24.652 6.8142 10.242 26.455 9.8206 48.502 11.023s39.282-4.0084 40.886-9.2193l-9.3048-30.464 1.288-20.844c0.32138-5.201-35.675-31.265-35.675-31.265z" fill="#c8ab37"/> <path d="m344.47 633.88-37.438 19.25c-0.90641 2.7371-1.9195 5.1901-2.9375 7.6562h3.875s18.168-11.784 28.469-12.75c27.21-2.5509 43.65 20.573 43.65 20.573l-1.838 1.4178-5.5305-2.835c1.9759 6.6516 1.4567 11.307 1.6875 16.562l2.0102-2e-3c1.1929 6.1747 1.5299 11.836 0.83359 16.877l-0.9375 21.469c8.9174-1.788 14.814-4.6842 15.719-7.625 1.6034-5.2109 3.2067-22.47 0-24.875s-0.8125-5.5938-0.8125-5.5938-5.2146-16.034-7.2188-20.844c-1.7455-4.1893-26.316-23.844-32.938-29.094z" fill="#504416"/> <path d="m182.53 505.33s-5.6687 36.28-2.8344 41.949 66.891 43.082 66.891 43.082 0.72836-26.622 0.72836-28.225-5.6117-6.0126-5.6117-6.0126 4.8101 1.6034 6.0126-0.80168-2.405-5.6118-2.405-5.6118l2.8059-4.4092-1.6034-24.852 39.683-4.8101s7.2151 36.476 8.8185 39.683 9.2193 22.046 9.2193 22.046l55.316-3.2067s7.616-76.56-2.405-88.986-174.61 20.156-174.61 20.156z" fill="#501616"/> <path d="m182.18 423.65s-17.837 29.462-18.439 30.865 0.48263 3.6636 1.0365 4.5225c0.86038 1.3342 2.1702 3.2939 2.1702 3.2939s-5.2109 19.842-6.213 22.447-0.80168 9.4197 1.4029 10.422 10.021 5.4113 10.021 5.4113-1.8038 6.213-2.2046 8.4176 2.6054 6.8143 4.0084 7.2151 11.223 3.2067 12.025 3.2067 2.405-2.2046 2.405-2.2046 0.60126 4.2088 0.40084 5.8122 3.2067 7.0147 4.6096 7.0147 19.441 5.2109 21.044 5.2109 8.0168-5.0105 8.0168-5.0105 1.2025 2.6055 0.80168 4.8101 2.405 5.8122 4.8101 6.213 26.255 0.20042 28.259 0 4.8101-8.0168 4.8101-8.0168 2.2046 6.6138 5.4113 6.8143c1.3418 0.0839 24.932-4.3176 27.658-5.6117 2.6361-1.2516 3.6076-19.04 3.6076-19.04s3.1966 3.0063 5.0004 3.0063 26.504-8.1342 29.276-10.647c2.1104-1.9131 0.84613-8.6768 0.84613-8.6768s1.3543 2.2876 2.7572 2.4881 21.846-7.2151 21.846-7.2151l8.2172-5.2109s-7.2151-23.249-8.2172-25.052-4.2088-2.6054-4.2088-2.6054 3.6076-3.0063 2.405-4.8101-18.038-35.073-19.441-36.476-8.618-2.6054-8.618-2.6054z" fill="#504416"/> <path d="m395.03 308s9.8206 10.221 10.422 11.825-0.40084 7.8164-0.40084 7.8164l-16.034-13.629z" fill="#c8ab37"/> <path d="m179.78 390.58 3.0063 5.2109-0.60125 3.4071-1.4272 13.325-0.60422 2.6627s-1.566 13.102 1.6407 17.511l14.821 11.395 4.4092-51.909z" fill="#504416"/> <path d="m183.72 372.85-3.5663 2.2302-0.76997 15.892 3.1875 1.2188 12.232 0.19621 5.0431-19.118-11.856-0.88372zm-0.74251 22.154-2.8125 2.375-0.60126 13.165 1.2188 2 14.638 3.4192-0.40084-20.182zm-3.0613 19.851-0.99202 2.9886 1.2914 12.182 15.411 11.852-1.4246-24.535z" fill="#c8ab37"/> <path d="m241.61 367.36 75.536 1.4286 3.9286 3.9286 3.5714 9.2857-2.5 2.5 0.53571 3.75 3.3929 0.35715 1.0714 12.679-2.6786 2.6786 0.53572 1.25 2.3214-0.17857 3.9286 8.5714-1.6071 4.6428-28.929 15.536-36.429 13.036z" fill="#504416"/> <path d="m260.18 371.65s25.536-2.1429 28.75-1e-5 5 5 5 5 1.7857 8.9286 1.0714 11.429-22.321 1.4286-22.321 1.4286z" fill="#c8ab37"/> <path d="m213.93 258.79-7.1429 40.714 51.429 2.1429 56.071-58.571-25-10.714z" fill="#241c1c"/> <path d="m270.97 278.59s-5.8084-3.0305-8.8388-1.7678-11.869 11.112-14.647 11.112-31.315 0.25254-31.315 0.25254l-7.3236-9.849s-16.162 19.698-18.435 20.708-13.89 45.962-13.637 49.497 6.3135 9.3439 6.3135 9.3439l5.9254 15.374 10.19 0.2606s32.625-5.5334 36.918-6.0385 85.038 7.6326 85.543 6.1174 13.127-55.738 13.127-55.738l-22.151-33.969z" fill="#504416"/> <path d="m173.75 293.23s-2.5254 7.5761-4.5457 10.102 10.607 2.5254 10.607 2.5254l28.284-14.142-13.637-5.0508z" fill="#504416"/> <path d="m386.38 266.46c5.4942 9.6424 12.271 19.028 14.647 29.294l-57.074-16.162 7.0711-21.718z" fill="#312a25"/> <path d="m210.62 118.73s-18.863 22.828-21.718 36.618c-0.88998 4.2991 1.0102 13.132 1.0102 13.132s-1.0284 2.7102-1.0102 3.7881c0.0263 1.552 2.0203 2.2728 2.0203 2.2728s-11.232 9.968-8.8388 20.456c2.985 13.082 11.364 40.659 11.364 40.659l60.104 4.5457 39.901-52.528-1.5152-56.569-52.023-26.769z" fill="#deaa87"/> <path d="m231.31 153.31s-6.5059 0.10605-9.75 2.5312c-1.5301 1.1439-1.2986 4.9513-1.2188 5.5625 2.2823 17.479 0.875 28.531 0.875 28.531s3.7973-1.0076 5.3125-0.25 3.5985 5.5727 1.875 7.4688c-2.0341 2.2377-8.9375-1.4062-8.9375-1.4062s-3.4281 3.2787-7.4688 3.5312-7.6875-3.5312-7.6875-3.5312-1.2584 3.1727-3.5312 1.5312c-1.9422-1.4027-1.5312 2-1.5312 2s4.2871 4.0414 6.8125 3.0312 3.5481 2.0312 8.0938 2.0312 8.3285-3.0338 9.8438-2.7812 4.532 2.9139 7.5625 2.1562 4.8931-5.1516 4.8125-6.8438c-0.0534-1.1216-2.3274-7.6228-5.5-9.9062-1.489-5.7611-3.7395-13.167-3.5938-14.188 0.25254-1.7678 2.5312-0.5 2.5312-0.5s10.946 4.7877 8.0179 2.1194c-2.6192-2.8987-2.2975-4.4522-2.5804-7.432 0 0-3.4358-1.1339-6.7188-0.25-1.8571 0.5-2.9062 0.25-2.9062 0.25s-0.90295 0.38943 0.65625-2.0312c3.9445-6.1239 20.633 1.2324 20.188 3.2812l1.2812-1s-6.6934-6.6799-9.2188-7.4375-6.4332-1.5401-9.9688-0.65625c0-2.5254 2.75-5.8125 2.75-5.8125zm2.2812 6.5938-0.375 1.875c-1.894-0.46976-3.4822-0.12267-5.25 1 1.3985-2.727 3.7607-2.7903 5.625-2.875zm17.562 5.7812s3.1744 2.5518 2.78 4.0663c-0.21887 0.84056-2.28 0.62119-2.28 0.62119l-2.5312 0.625c0.45936 1.2543 0.10074 0.10727-2.5127 0.0677 0 0-0.45209 3.4075-2.2199 3.7863s-4.5524 0.25127-4.5524 0.25127c3.3386 1.7333 6.3027 2.2972 8.9069 0.99746 1.9742-0.98526 3.2062-1.9319 2.6593-3.6965 0 0 4.7219-6e-3 4.0906-1.2686s6.0032-0.26266 6.0032-0.26266c-3.7354-1.1543-7.1113-3.0274-10.344-5.1875z" fill="#b4754b"/> <path d="m222.49 148.53c-0.13776 2.5607 1.5152 6.8185 3.0305 7.0711s7.9783-2.9019 12.122-2.7779c5.0855 0.1522 14.647 4.2932 14.647 4.2932s-0.88388-7.4499-5.5558-11.112c-3.482-2.7291-6.5266-4.1126-10.228-4.4194-4.0185-0.33313-8.534 0.46253-11.743 2.9042-1.2298 0.93574-2.1898 2.4975-2.2728 4.0406z" fill="#782121"/> <path d="m214.41 155.59c-0.37881 0.12627-1.375 1.9062-1.375 1.9062s-2.407-1.4024-5.4375-1.7812-6.0843 5.4256-9.8438 6.6875c-2.6697 0.89615-7.1117 1.0688-8.4375 0.4375 0 0 0.46875 3.2322 0.46875 5s2.0186 0.50127 3.2812 0.375 4e-3 3.4012-0.375 3.9062-2.0186 0.0275-3.2812 0.40625 1.75 1.875 1.75 1.875c3.1986-1.1783 2.2195 2.0482 8.5938 2.0312 3.5418-0.36525 8.9688-5.8125 8.9688-5.8125s-2.2722 11.764-4.6075 17.81c-5.7282 3.188-4.7337 6.371-4.9863 7.0655-0.50508 1.389 1.7724-2.5249 2.6562-3.1562s2.7787 0.13975 3.0312 1.7812 1.875-3.5625 1.875-3.5625 8.0976-35.095 7.7188-34.969zm-13.5 8.1562 0.53125 1.1875c-1.108 0.22635-1.9913 1.2387-2.8661 2.2812-0.0119-1.0074 0.41528-2.4167 2.3348-3.4688zm4.9062 4.0938s-0.61039 6.4407-5.9062 7.2812c-1.0054 0.15958-2.4241-4.1429-2.4241-4.1429s1.8413-2.0721 3.8616-2.4509 4.4688-0.6875 4.4688-0.6875z" fill="#b4754b"/> <path d="m189.66 158.88c0.28826-1.4413 14.777-0.3966 17.173 0.75761 2.594 1.2498 3.0305-6.566 3.0305-6.566s-2.5254-6.566-4.7982-7.0711-13.637 1.2627-14.9 2.0203-5.5558 8.0812-4.2932 9.0914 3.7881 1.7678 3.7881 1.7678z" fill="#782121"/> <path d="m225.77 166.71s3.6824-0.96563 5.5558-0.88388c5.2013 0.22694 15.152 3.7881 15.152 3.7881l-0.12627-1.2627s-5.4445-3.8608-8.5863-4.7982c-2.8707-0.8565-6.2211-1.8334-8.9651-0.63134-1.4812 0.64882-3.0305 3.7881-3.0305 3.7881z"/> <path transform="translate(-.63135,-.06313)" d="m232.08 164c0 0.52303-0.45226 0.94702-1.0102 0.94702s-1.0102-0.42399-1.0102-0.94702 0.45226-0.94701 1.0102-0.94701 1.0102 0.42399 1.0102 0.94701z" fill="#f2f2f2"/> <path d="m208.6 166.84-1.3258-2.1466s-5.6385-0.068-7.5761 1.6415c-0.90338 0.79701-1.1996 3.4093-1.1996 3.4093s1.2627-1.5152 2.2728-1.6415 7.8287-1.2627 7.8287-1.2627z"/> <path transform="matrix(.84375 0 0 .86667 5.5578 24.833)" d="m232.08 164c0 0.52303-0.45226 0.94702-1.0102 0.94702s-1.0102-0.42399-1.0102-0.94702 0.45226-0.94701 1.0102-0.94701 1.0102 0.42399 1.0102 0.94701z" fill="#f2f2f2"/> <path d="m267.14 120.58c-7.3918 12.083-10.122 24.167-13.929 36.25 0 0 4.2857 6.4286 4.8214 8.75s-1.0714 5.1786-1.0714 5.1786-5.5744 3.9047-5.7143 7.1429c-0.12482 2.8886 7.8571 13.036 6.6071 17.143s-9.1071 10.536-9.1071 10.536l0.35714 23.393h53.571l34.821-52.5-48.571-55.714z" fill="#b4754b"/> <path d="m219.2 303.08s-2.2587 28.463-2.8088 30.047c-0.44604 1.2838-9.9318 17.436-11.684 17.9-7.2961 1.9283-17.665 1.5566-18.873 1.5566-1.7678 0-6.5969-6.5969-6.5969-6.5969l11.173-43.158s8.3338-10.859 9.3439-10.859 19.445 11.112 19.445 11.112z" fill="#c8ab37"/> <path d="m226.5 333.66c-0.25253 1.5152 13.962 17.621 16.74 18.126s46.425 0.28344 48.446-0.97926 17.173-36.113 17.173-36.113l-6.0609-3.283-4.2931-11.617-15.405-7.3236-1.2627 3.0304-17.678-2.7779c-3.7881-0.50508 0.50508-11.869 0.50508-11.869s-2.1982-1.2264-5.0948 0.428c-5.0794 2.9012-12.306 9.421-13.593 9.421-2.0203 0-7.8287 17.425-7.8287 17.425l2.2728-14.142-8.0812 17.173 1.7678 9.3439-6.0609-6.3135z" fill="#c8ab37"/> <path d="m189.4 257.37-25.254 26.264 1.5152 2.5254s-2.5254 0.50508-2.0203 3.0305 14.647 11.617 14.647 11.617l28.789-13.132z" fill="#c8ab37"/> <path d="m373.85 472.17s-10.971 9.7542-11.538 13.155 1.6176 29.077 2.4679 31.627 8.9324 7.0029 8.9324 7.0029 3.5388 14.255 5.5228 18.223 9.07 3.6847 9.07 3.6847l41.308-21.43-18.004-55.817-22.171-9.7685z" fill="#deaa87"/> <path d="m323.68 304.09-1.1337 29.477s6.6607 28.769 13.747 28.91l5.0653 12.668c-3.2113 3.9511 2.2116 12.718 2.7292 13.408 1.7006 2.2675 18.14 5.1018 18.14 7.9362s-6.2356 13.605-6.2356 13.605-1.7025 7.2228 3.4569 9.3848l1.1063 12.418c-1.7937 10.093 2.0616 20.924 2.8061 22.413 1.7006 3.4012 7.3693 20.407 7.3693 20.407l33.445-15.872 5.1018-64.623-5.6687-23.809z" fill="#501616"/> <path d="m360.25 382.32s2.2675 8.2196 3.1178 9.9203 6.738 4.9059 9.9203 3.9681c7.9279-2.3363 22.991-9.121 35.132-10.667 7.4014-0.94277 8.2509-0.91639 10.149 0.31192 3.4071 2.2046 5.1706 0.15179 5.1706 0.15179-0.79066-7.5711-5.9155-12.574-9.2846-18.618-1.4896-2.6721-5.0723-3.2437-6.6566-5.8608l-5.5999-9.2502z" fill="#504416"/> <path d="m233.21 110.58c-3.3928 5-17.857 8.2143-20.714 9.1072s-15.893 18.75-15.893 18.75-5.5357-20-2.6786-23.393 22.857-18.214 26.607-18.214 21.429 0.71429 21.429 0.71429 9.7598-5.8742 13.929-5.8929c9.663-0.04333 22.547 14.523 21.964 13.036-0.46018-1.1745 34.322 7.3572 36.071 8.0357 0.99897 0.38733 5.6814-3.3575 8.3929-2.3214 9.0537 3.4595 14.464 20 15.714 24.464l-62.143 117.86s-12.5 17.143-13.571 18.571 1.9643-8.5714 1.6071-9.2857-20.357 22.5-21.964 26.607-4.1071 16.786-5 14.821 4.2857-21.429 2.8572-23.214c-0.70934-1.8282-6.9634 17.671-8.7268 24.268-0.68366 2.6173-1.3113-1.9844-0.33177-8.0558 0.97076-6.0172-0.13524-11.771-1.921-9.2708s-1.9072 13.304-1.6303 19.98c0.26559 6.4048 5.6456 18.615 3.1456 18.972s-13.393-23.214-14.286-24.464 2.3214 10.893 0.89285 9.6429-5.8928-12.679-6.0714-14.107 1.7857 7.1428 0.17857 7.5-4.6429-4.2857-5.3572-8.9286-4.4643-9.6428-4.4643-6.7857 0.35714 5.3571-1.6071 1.9643-13.393-34.643-14.107-31.786 4.1072 14.464 2.6786 14.464-6.4286-11.25-6.25-14.107-2.5-43.393 0-45.536 3.5714-6.0714 3.5714-6.0714l9.1071 15.179s2.5-15.357 5.5357-17.857 20.357-1.9643 23.036-1.25 19.107 10.179 21.964 13.393 2.8571 4.2857 2.8571 4.2857 8.5714-15.893 11.964-16.429 23.965-7.0193 23.965-7.0193l5.1786-39.679s-8.9647-9.7302-12-11.695-15.893-25.714-18.929-28.393-8.0357-4.8214-8.0357-4.8214 2.5 1.25-3.3929 1.0714-13.571-4.1072-13.571-4.1072z" fill="#782121"/> <path d="m299.19 120.84c-3.8436-4e-3 -7.9911 0.67699-12.625 2.4062l22.656 39.969s-7.8683-1.9997-13.031-4.5312c-9.1956-4.5088-24.219-18.906-24.219-18.906 2.2757 3.5753 4.2362 6.4157 5.1875 7.0312 3.0357 1.9643 8.375 10.906 8.375 10.906l-0.53125 12.312-0.90625 1.625 1.25 4.0938-2.6562 1.25 2.6562 1.7812-5.5312 3.2188s4.1295 0.71875 3.5938 1.9688-3.0625 9.8125-3.0625 9.8125-16.951 10.902-20.344 11.438c-0.22796 0.036-0.47565 0.22346-0.75 0.46875 0 0 13.496 12.732 17.344 20.938 2.1374 4.5577 2.7812 14.844 2.7812 14.844l-9.2188-7.625-0.40625 18.438-2.375-4.4062-4.0625 14.594c0.35324-0.32353 0.59126-0.53622 0.625-0.46875 0.35714 0.71429-2.6964 10.71-1.625 9.2812s13.594-18.562 13.594-18.562 2.2946 3.75 3.1875 2.5 11.812-13.938 11.812-13.938 55.522-3.567 56.594-4.2812-15.897-17.491-15.719-18.562 19.991 9.6428 23.562 10-4.0848-3.7411-5.1562-4.8125 14.812 4.4509 16.062 4.0938-16.241-17.152-19.812-20.188-0.5491-3.0134 1.5938-2.6562 29.304 11.228 31.625 11.406-1.433-2.8527-8.2188-5.5312-31.987-39.625-32.344-43.375 0.1875-28.036-1.0625-32.5c-0.3865-1.3804-1.177-3.9293-2.3438-6.875-5.3929 3.2364-9.3068 2.3883-14-0.78125-7.112-3.0166-14.044-6.3672-22.5-6.375z" fill="#501616"/> <path d="m294.96 185.65s4.0406-11.869 10.859-13.637 13.888 1.6246 15.657 7.0711c4.0424 12.443-16.162 33.588-19.445 34.093s-10.102 9.0914-10.102 9.0914 1.7678-25.506 0.50508-27.022 2.5254-9.5964 2.5254-9.5964z" fill="#b4754b"/> <path d="m298.75 188.93s2.7779-9.0914 6.3135-9.849 12.627-1e-5 12.879 3.5355-1.0102 10.354-3.7881 17.678l-14.647 9.3439s9.0042-5.9229 11.869-10.859c2.5998-4.4791 4.2932-14.142 3.7881-14.9s-11.364-1.7678-11.364-0.75761 4.9896 2.7682 4.2931 4.7982c-0.61088 1.7804-5.5558 1.0102-5.5558 1.0102s-2.2728 4.2932 0.50508 5.8084 2.5254 7.5761 0.75762 8.3338-8.5863 2.7779-8.5863 2.7779 4.5457-4.0406 5.0508-5.8084-1.5152-11.112-1.5152-11.112z" fill="#754c31"/> <path d="m310.87 240.45s-12.879-3.7881-17.173 0c-10.177 11.36-16.503 23.85-20.203 38.386l16.92 2.5254z" fill="#504416"/> <path d="m374.38 292.97 4.0312 27.25s16.826 8.8416 22.438 9.8438 4.8017-5.8341 4-7.4375c-0.65468-1.3094-7.5022-7.1808-8.9462-11.665-0.87362-2.7128 4.9978-1.446 9.165-2.835 4.5457-1.5152 6.0625-5.2812 6.0625-5.2812l-18.188-7.5938-8.1875 2.875z" fill="#312a25"/> <path d="m331.76 363.19s-0.14172 10.487 0.42516 11.904 2.5509 4.3933 4.1098 3.543 3.2595-2.6926 3.2595-2.6926l7.6528-4.3933-5.527-15.589z" fill="#28170b"/> <path d="m333.88 331.03c-3.0392-0.57294-5.8018-0.0393-7.3438 5.3772 0 0 4.7972 19.549 6.7812 20.967s8.7812-1.4062 8.7812-1.4062zm12.781 44.188s-4.2544 2.5763-3.6875 4.8438 2.2681 7.0603 3.9688 7.3438 9.9062 1.7188 9.9062 1.7188l-5.0938-4.8125zm17.281 22.688-7.0938 12.188 2 5.375 21.812-9.9062-3.4062-7.0938s-7.0806 2.8459-8.7812 2.5625-4.5312-3.125-4.5312-3.125zm15.031 30.625-16.75 7.0625s-0.53999 3.4003 0.59375 8.2188 3.0938 9.9375 3.0938 9.9375l12.469-6.25z" fill="#782121"/> <path d="m327.09 313.73s18.99 62.072 19.557 64.623 8.2196 6.8025 10.487 6.2356 43.933-9.6368 45.35-13.038 2.8344-24.092 2.8344-24.092l-23.525-55.27z" fill="#c8ab37"/> <path d="m381.78 292.19-54.688 21.531s2.3994 7.8698 3.375 11.062h0.0312l11.312 2.8438 0.46875 0.3125c3.5624 10.273 8.6687 24.331 13.156 33.969 1.9639 4.2177 11.326 3.4084 13.594 3.125s-9.1163-2.2199-10.781-5.9688c-3.8212-8.6041-7.7171-18.919-10.812-27.5l0.0625 0.0312s24.666 9.3459 27.5 9.0625 5.9375-9.625 5.9375-9.625l15.594 29.188s4.2478 1.9869 4.5312 3.6875c0.22258 1.3355-0.19134 6.399-0.40625 8.9375 1.0103-0.48795 1.6578-0.90997 1.8125-1.2812 1.4172-3.4012 2.8438-24.094 2.8438-24.094l-23.531-55.281z" fill="#504416"/> <path d="m302.04 293.74 3.0305 13.637s52.78 19.698 58.336 19.951 17.425-2.7779 12.879-6.8185-10.859-15.405-5.5558-17.678 22.728-5.5558 28.537-3.5355 11.617 4.7982 11.617 4.7982-1.9181-6.7592-4.7982-7.8287l-68.69-25.506z" fill="#c8ab37"/> <path d="m302.63 302.39 36.677 13.428 10.221-10.221c0.80792-0.80792 18.639 9.3195 18.639 9.3195l-15.232-12.827s0.56323 0.38449 5.5115-4.0084c2.3391-2.0766 0.10262-2.3636 3.1354-3.9338 8.3592-4.3278 21.115-6.6885 21.115-6.6885l-35.374-15.533-46.096 22.447 1.2025 8.8185z" fill="#504416"/> <path d="m325.19 232.53c-6.6883 0.0592-15.831 0.59962-17.094 3.125-2.0203 4.0406-2.0312 10.094-2.0312 10.094l-7.5625 12.125-4.0312 2.0312s-11.619 27.256-9.0938 29.781 53.531 23.25 53.531 23.25 12.64-17.167 11.125-19.188-2.0312-4.0625-2.0312-4.0625l11.094-20.188s18.355 5.2821 29.062 3.625c6.13 7.0009 9.7487 14.42 11.844 22.094l4.2812-1.0625c-1.1842-7.672-6.3257-14.553-11-21.375 0.0956-0.0734 0.1875-0.15396 0.1875-0.25 0-2.5254-4.6652-13.871-4.6652-13.871s-3.4017-3.5307-5.4598-4.817c-15.614-9.7587-32.968-17.494-51-21.219-2.3363-0.48255-3.1433-0.12926-7.1562-0.0937z" fill="#c8ab37"/> <path d="m271.07 271.65c0.89286-1.4286 16.25-1.9643 15.714 0.71429 0 0-3.9286 18.214-7.1428 19.286s-12.857 2.1429-15.357-1.0714c-1.0963-1.4096 4.1071-15.893 6.7857-18.929z" fill="#c8ab37"/> <path d="m267.86 289.15c4.8214 1.25 10.179 0.53572 11.429-0.17857s5.1786-14.107 5.1786-14.107-2.6786 4.2857-3.0357 5.5357-1.4286 8.0357-4.1071 7.6786-8.3929-0.71428-9.2857-1.7857c-0.80023-0.96028-0.17857 2.8571-0.17857 2.8571z" fill="#504416"/> <path d="m186.63 360.41 2.7779 11.112 11.364-3.283 0.25254-9.0914z" fill="#c8ab37"/> <path d="m258.35 359.4 35.86-2.2728s1.2627 9.5964 0.25254 9.849-36.113-1.2627-36.113-1.2627z" fill="#c8ab37"/> <path d="m205.36 354.15c1e-4 -2.4485 36.071-1.9859 38.571-0.35714 2.1159 1.3786 5.1786 9.8214 5.5357 12.321s17.679 24.464 22.321 27.321 4.6429 6.7857 4.6429 8.9286-5.2906 35.237-6.0714 39.643c-2.5 14.107-29.346 24.47-46.786 23.571-16.316-0.84043-27.969-12.849-29.821-19.464-2.5-8.9286-3.3929-54.821-3.3929-54.821s9.6429-19.286 10.357-22.857 0.35714-14.643 4.6429-14.286z" fill="#c8ab37"/> <path d="m215 395.58s10.483 1.1798 10.483-1.0931l-0.12627-30.335 15.357 0.71429s22.143 31.429 24.643 32.857 3.2143 6.4286 3.2143 6.4286l-3.5714 1.4286s-0.71429 20.357-2.1429 23.571c-0.60524 1.3618-1.9195 4.9466-3.5245 6.7342-2.1833 2.4318-4.6898 2.934-4.6898 2.934l1.7857-43.597s-15-21.786-16.786-24.286-10.714-2.8571-10.714-2.8571-1.2881 21.071-1.4286 28.036c-0.0844 4.1845-11.071 1.4286-11.071 1.4286z" fill="#504416"/> <path d="m212.14 365.22 0.17857 3.9286s-4.2857 0.35714-5.7143 0.71429-11.25 23.75-11.25 23.75l-2.1429-0.35715s10.357-26.071 11.607-26.607 7.3214-1.4286 7.3214-1.4286z" fill="#504416"/> <path d="m205.36 356.83c6.25-1.25 32.5-1.4286 35-1.4286s1.3764-0.85066 0.17857-1.25c-0.91382-0.30464-28.548-1.3257-33.571 0.71429-1.9991 0.81186-5.1786 2.1428-1.6071 1.9643z" fill="#e9ddaf"/> <path d="m226.53 409.78c1.0089 0.70735 1.8222 28.652 3.0304 29.042 0.60087 0.19379 1.1364 2.5254 1.1364 2.5254l-3.7881 1.5152-2.0203-31.946z" fill="#504416"/> <path d="m216.79 411.29c0-0.74697 7.8644 0.51925 8.75-0.25254 0 0 1.9643-1.7118 0.19652-1.5855l-7.9094 0.34817z" fill="#e9ddaf"/> <path d="m229.68 441.09c-0.49607 0.99213 21.504-0.82506 26.011-2.7779 5.2745-2.2852 8.9897-13.185 8.46-14.773 0 0 0.0428 8.8109-0.88388 10.859-0.94028 2.0783-3.9387 5.3848-7.8435 6.5582-9.659 2.9024-25.726 4.0973-27.259 2.2807-0.97727-1.158 1.5152-2.1466 1.5152-2.1466z" fill="#e9ddaf"/> <path d="m217.56 444.12s-13.77-0.56019-15.784-0.88388c-7.0711-1.1364-7.4499-8.7126-7.4499-8.7126s0.75762-2.5254 1.6415 0c0 0 2.5852 6.1829 4.0406 6.4397 2.1466 0.3788 17.804 0.50507 17.804 0.50507z" fill="#e9ddaf"/> <path d="m297.86 373.61 3.75 12.857 11.607-0.17857-3.3928-13.571z" fill="#c8ab37"/> <path d="m278.39 393.97s14.821-1.7857 15.893-1.4286 3.2143 2.1428 3.2143 4.2857 1.4286 10.357 0.53571 12.321-3.3928 3.5714-6.7857 3.9286-11.786 2.6786-11.786 2.6786l1.7857-18.393z" fill="#c8ab37"/> <path d="m278.04 420.4-2.5 21.964s17.5-9.1072 18.393-10.179 1.25-3.3928 1.25-3.3928 0.35714-7.3214 0-8.3929-1.7857-2.5-3.5714-2.3214-13.571 2.3214-13.571 2.3214z" fill="#c8ab37"/> <path d="m304.82 393.26c-0.89286 0.71429-1.6072 1.25-1.9643 3.0357s-1.7857 9.4643-1.0714 11.429 1.6072 3.5714 3.5714 3.3929 9.1071-1.9643 9.1071-1.9643l-0.53571-17.857z" fill="#c8ab37"/> <path d="m302.14 417.18c0.89285 0 10.893-2.5 10.893-2.5l0.71429 10.536s-11.071 6.7857-12.321 6.9643-3.3929-1.25-3.0357-2.6786 0.35714-9.6428 1.4286-10.714 2.3214-1.6072 2.3214-1.6072z" fill="#c8ab37"/> <path d="m197.81 236.77 2.0042 2.2046-1.2025-15.633 1.8038 3.6076 1.4029-2.405s2.405 7.4155 3.2067 7.4155 1.4029-8.0168 1.4029-8.0168l1.8038 1.6034 1.4029-1.4029 4.2088-1.0021 0.80168 2.405 1.2025-2.0042 2.8059 6.8143 1.6034-5.2109 1.4029 2.405 1.0021-2.6054 3.0063 5.4113 0.80168-5.4113 3.2067 0.40084 1.4029 4.6096 0.40084-3.6076 2.2046 2.8059 0.80168-3.4071 2.8059 0.80167 1.8038 5.4113 0.80168-3.0063 2.8059-1.0021 3.6076 6.0126 5.6117 14.831 1.4029-11.743 1.2025 18.639-0.20042 2.2046-1.4029-2.2046-0.20042 2.2046-10.221-21.846-1.4029 2.6054-1.2025 2.8059-3.0063-7.2151-1.0021-0.20042-0.20042 4.0084-3.4071-4.0084-0.40084 3.0063-2.6055-4.6096-2.405-0.60125 0.60126 6.6138-5.0105-6.0126-0.40084 2.2046-1.6034-2.405-0.80168 6.6138-3.808-7.8164-0.80168 2.405-1.0021-2.6054-4.2088 1.2025-1.4029 1.0021-0.80168-0.80167-1.6034 8.0168-3.808-8.0168-0.60126 2.6054-2.6054-3.2067 1.8038 16.434z" fill="#501616"/> <path d="m369.03 365.03 24.659-3.4012-5.6687-2.2675-23.95 3.6847z" fill="#e9ddaf"/> <path d="m395.22 377.75-28.844 7.2188-4.9062 1.5625c0.68573 2.3181 1.469 4.8442 1.9062 5.7188 0.76331 1.5266 5.5629 4.2588 8.8438 4.125l1.5625-4 24.438-6.8125-3-7.8125z" fill="#c8ab37"/> <path d="m312.25 235.85s-5.4546 4.4065 2.8059 6.213c7.4057 1.6196 42.088 25.854 42.088 25.854-9.191-15.284-22.436-23.027-44.894-32.067z" fill="#e9ddaf"/> <path d="m389.82 405.41c-13.827 3.2371-25.191 9.5288-36.877 17.236-2.0964 1.3826 0.38481 9.578 2.0042 13.829 0.76697 2.0133 5.6118 3.2067 5.6118 3.2067v-7.2151c7.5679-5.3655 15.347-9.4624 23.449-11.624z" fill="#28170b"/> <path d="m381.8 448.7c-6.746 3.0817-13.689 6.1251-19.641 12.626-0.90785 0.99165 3.3841 11.838 4.4092 12.827 0.81172 0.78291 1.6851 0.99987 3.7964 0.18147 8e-3 -1.6617 2.2513-3.9243 2.9324-4.3325 6.9096-4.1415 11.013-4.9763 17.923-7.6738z" fill="#28170b"/> <path d="m389.22 459.12-4.625 8 25.656 5.2188s16.241 45.902 14.438 47.906-37.281 12.031-37.281 12.031l0.8125-2.8125s6.0057-8.0325 7.4087-10.438-1.4062-23.438-1.4062-23.438l4.2188-2.5938s-13.624-4.2229-11.219-2.2188 2.0021 20.65 1 23.656-3.2083 5.6067-6.2146 5.4062c-2.6498-0.17665-12.225-0.60548-15.475-0.71875 2.6318 2.3283 7.1875 4.8438 7.1875 4.8438s0.18234 0.6742 0.21875 0.8125l0.4375 0.0625 8.625 6.2188-1.9375 4.4375 2.125 2.5938-2.7812 5.5625c2.7398 2.4238 7.9062 2.2188 7.9062 2.2188s-0.0109 1.9622 1.4062 2.8125 8.5094 1.1562 11.344 1.1562 30.578-8.2885 32.562-11.406 5.6897-11.849 5.4062-15.25-7.4688-13.125-7.4688-13.125-18.935-39.433-19.938-41.438l-21.188-9.3438z" fill="#b4754b"/> <path d="m418.35 395.07c-2.3111-3.3425-8.7865-7.6528-9.9203-7.0859s-12.119 4.4318-13.82 6.4159-7.991 8.4998-11.56 12.022c-8.8126 8.6952-7.782 39.495-6.3648 43.463s4.2859 12.657 9.3878 13.86c4.9658 1.1704 26.609 5.3023 26.609 5.3023l5.1018-8.5031z" fill="#c8ab37"/> <path d="m414.28 391.06 1.375 12.812s-3.8386-4.1148-6.5312-3.4062-17.712 9.335-18.562 10.469-7.9128 24.94-7.0625 28.625 4.67 14.762 6.9375 15.188 1.5625-2.2812 1.5625-2.2812-5.9688-9.2034-5.9688-11.188 4.3953-26.52 5.8125-27.938 13.461-8.3583 16.438-8.5 5.6875 2.4062 5.6875 2.4062l0.96875 52.438-5.7848-2.1286 4.9411 3.9724-2.125 7.375 0.71875 0.15625 1.4062 5.375s2.835 2.83 3.9688 0.5625 2.3377-8.691 2.4062-10.062c0.14172-2.8344-0.96875-4.0938-0.96875-4.0938l-0.875-51.594s2.5502-0.71798 2.125-2.8438c0 0-1.1013-9.4564-2.4062-11.344-0.90661-1.3112-2.4481-2.7438-4.0625-4z" fill="#504416"/> <path d="m393.41 456.01 13.747 2.9761-3.6847-2.2675-8.6448-2.5509z" fill="#e9ddaf"/> <path d="m191.5 452.59c-1.005 13.952-2.5843 35.848-3 37.719-7e-3 0.0307-0.0252 0.0627-0.0312 0.0937 0.85237 1.4516 1.6874 2.7915 2.125 3.375 1.2025 1.6034 17.845 4.8308 20.25 5.0312s5.0183-4.0141 5.2188-6.2188 0-21.438 0-21.438c-8.7829-4.1035-16.845-10.729-24.562-18.562z" fill="#c8ab37"/> <path d="m222.87 470.14c11.037 0.28115 20.495-2.4198 28.86-4.8101 0 0 3.2067 25.453 3.0063 29.261-0.0261 0.4962-0.80823 5.2979-3.1967 5.641-6.9157 0.9935-23.331 0.90473-25.463 0.37157-3.2067-0.80168-2.6054-4.8101-3.0063-9.6201z" fill="#c8ab37"/> <path d="m182.78 438.68-7.4155 28.66c-0.36549 1.4126 1.2463 2.4215 3.0488 3.7065 2.6581 1.8948 5.3162 2.3422 7.9742 2.1056l4.2088-27.658z" fill="#c8ab37"/> <path d="m177.81 430.91c-4.9082 8.1248-13.186 21.817-13.969 23.406 2.9324 1.6975 8.0503 4.5938 8.9062 4.5938 1.2025 0 3.43-0.37831 4.0312-1.7812s5.4062-20.656 5.4062-20.656l-4.375-5.5625zm-11.531 33.875c-0.98387 3.7308-4.6498 17.708-5.5312 20-0.47029 1.2228-0.67353 3.3653-0.53125 5.4062 3.5221 1.6324 8.1335 3.7311 9.3438 4 1.8038 0.40083 3.9925-1.3891 4.5938-3.5938s2.4062-18.25 2.4062-18.25l-10.281-7.5625z" fill="#c8ab37"/> <path d="m178.37 479.56 8.8185 3.0063s-0.80168 8.8185-0.60126 10.221 3.0063 3.808 3.0063 3.808-1.2025 10.021-1.2025 11.424-2.0386 8.5979-4.7757 8.3975c-1.231-0.0901-7.2622-2.5246-10.938-4.4335-1.1363-0.59008-1.9927-2.5944-2.324-3.1623-1.4029-2.405 8.0168-29.261 8.0168-29.261z" fill="#c8ab37"/> <path d="m191 500.21s21.244 4.8101 22.247 4.8101 4.8101-1.0021 4.8101-1.0021 0.20042 20.242-0.60126 22.447-2.5224 6.2516-4.9275 6.0511-20.927-5.6503-22.129-6.8528 0.60126-25.453 0.60126-25.453z" fill="#c8ab37"/> <path d="m224.87 507.62 30.865-0.80167s1.4029 23.85 1.2025 25.453-0.60126 5.4113-3.4071 5.6118-26.455 0.60126-28.059-0.40084-0.60125-29.863-0.60125-29.863z" fill="#c8ab37"/> <path d="m289.41 444.5-15.031 5.8125s-1.1848 4.145-2.3874 5.548c-0.60126 0.70147-4.1759 5.8004-7.0334 8.0312-3.1409 1.2389-4.2892-0.10686-4.2892-0.10686s2.3949 28.31 1.9941 29.512 4.7823 4.6846 8.2137 4.9781c3.1574 0.27007 22.948-6.4996 24.752-6.9005s2.5938-6.2016 2.5938-8.4062-8.8125-38.469-8.8125-38.469z" fill="#c8ab37"/> <path d="m263.84 503.53 4.8798 1.7618 25.902-6.2884s0.17611 27.385-0.20042 30.122c-0.2443 1.7759-1.1497 4.3992-3.1539 4.8-1.5182 0.30364-18.317 3.9314-24.259 3.8866-1.9021-0.0144-3.7817-4.2145-3.9215-5.5142-0.15602-1.4507 0.75306-28.767 0.75306-28.767z" fill="#c8ab37"/> <path d="m293.92 440.85 3.9681-3.543 20.266-6.9442 8.5031 25.509c0.56688 1.7006 1.4172 6.519-0.56687 6.8025s-20.833 7.511-20.833 7.511l-4.3933 2.5509z" fill="#c8ab37"/> <path d="m300.73 478.26 2.8344-0.56687 23.383-7.6528s3.9681 29.761 4.3933 31.887 0.85031 5.3853-1.7006 5.9522-24.517 8.3614-26.076 8.3614-2.6926-1.5589-2.6926-1.5589z" fill="#c8ab37"/> <path d="m323.08 521.65s15.633-1.2025 20.844-1.2025 9.6201 8.8185 9.6201 8.8185 18.839 21.244 21.244 24.05-0.20043 8.8185-0.20043 8.8185 6.213 1.2025 6.6138 5.6117l-6.4134 73.754 7.2151 22.046s-24.852-19.24-36.877-20.042-39.282 16.434-39.282 16.434-9.2193-1.4029-7.2151-5.2109c1.3817-2.6253 6.7143-11.125 7.4155-16.034 1.0021-7.0147-0.20042-19.641-1.4029-26.856s-8.8185-32.869-10.021-35.675-3.6076-7.6159-0.40084-9.6201 4.8101-3.6076 4.8101-3.6076-2.0042-8.4176 0.40084-10.823 14.43-22.848 17.637-25.654 6.0126-4.8101 6.0126-4.8101z" fill="#c8ab37"/> <path d="m315.86 551.11s37.278 0.80168 39.282 0.20042 6.8143 3.6076 6.8143 3.6076l-1.2025 1.6034s-16.835 1.0021-21.044 1.4029-19.24-2.405-20.443-2.405-4.8101 4.4092-5.2109 6.6138-3.0063 8.4176-1.4029 9.4197 6.4134 7.0147 6.213 9.6201-3.0063 61.729-3.0063 61.729-1.6034-57.52-2.6054-60.527-5.8122-9.6201-4.8101-12.426 4.8101-15.232 5.4113-16.234 2.0042-2.6054 2.0042-2.6054z" fill="#504416"/> <path d="m314.06 643.91-4.4092 8.8185c5.2109-4.0084 22.447-11.224 31.666-12.626 1.4011-0.2132 2.8059-6.4134 2.8059-6.4134-9.757 0.68983-17.699 2.753-30.063 10.221z" fill="#e9ddaf"/> <path d="m359.55 569.15s-2.8059 3.6076-3.6076 6.8143 3.2067 6.213 4.4092 3.808 2.8059-9.4197 2.8059-9.4197z" fill="#e9ddaf"/> <path d="m305.44 546.1s-5.2109 3.808-5.8122 7.2151-0.20042 9.6201 1.0021 12.226 6.8143 22.247 6.8143 22.247-6.6138-30.464-5.6118-33.069 3.6076-8.618 3.6076-8.618z" fill="#e9ddaf"/> <path d="m344.92 522.45c-2.2046 0.20042-18.639-0.40084-21.645 1.2025s-9.4197 8.8185-9.4197 8.8185 8.4176-6.8143 10.422-6.8143 20.643-3.2067 20.643-3.2067z" fill="#e9ddaf"/> <path d="m297.62 566.34s-2.6054 0.20042-3.4071 1.6034 1.2025 8.4176 1.2025 8.4176c-0.7131-4.4987 0.24952-7.6568 2.2046-10.021z" fill="#e9ddaf"/> <path d="m372.94 551.22-5.5625 72.844 6.5938-35.062s3.2188 1.2037 3.2188 2.4062-6.6088 38.471-5.4062 43.281 2.4062 18.438 2.4062 18.438-15.234-9.0033-19.844-10.406c-1.9975-0.60792-5.87-0.0472-9.625 0.78125 0.13189 4e-3 0.27778-9e-3 0.40625 0 12.025 0.80168 36.875 20.062 36.875 20.062s4.9967-1.4237 3.5938-5.0312c-0.74592-1.9181-3.1779-6.6166-4.7812-10.625s-3.6142-23.249-2.8125-32.469 3.5883-43.278 3.1875-47.688-4.4062-7.625-4.4062-7.625 0.40503-4.0066-2-6.8125c-0.19254-0.22463-1.4586-1.6531-1.8438-2.0938z" fill="#504416"/> <path d="m174.77 531.27c-3.6076-0.40084-5.2109 1.2025-5.2109 4.0084s1.2025 8.8185 1.2025 12.025 6.0126 7.2151 6.0126 7.2151 17.236 58.923 16.835 63.333-9.2193 11.223-9.2193 11.223l0.80167 5.6118s22.447 6.8143 27.257 11.624 10.422 17.236 22.046 17.637 13.228-13.228 17.236-14.43l8.0168-78.564c-3.6076-4.8101-16.034-5.2109-16.034-5.2109l-3.2067 1.6034-27.658-8.0168s2.405-4.4092-2.0042-6.4134-12.827-4.8101-17.637-10.021-8.0168-10.021-11.624-10.823-6.8143-0.80168-6.8143-0.80168z" fill="#c8ab37"/> <path d="m209.64 554.72 1.6034 54.514s2.2046-50.305 1.4029-53.111-3.0063-1.4029-3.0063-1.4029z" fill="#504416"/> <path d="m171.62 549.69c1.6679 2.5176 5.1562 4.8438 5.1562 4.8438l0.1875 0.6875c4.9635 0.83781 10.694 1.7819 11.812 1.9062 1.8038 0.20042 6.625 3.8125 6.625 3.8125s-3.4183-4.4204-6.625-6.625c-2.8531-1.9615-14.497-4.1462-17.156-4.625z" fill="#504416"/> <path d="m192.12 621.25c-2.6077 3.8444-7.75 7.8125-7.75 7.8125l0.0937 0.59375 23.969 8.0312s-2.5642-6.9758-4.2046-9c-2.2068-2.7233-8.8819-6.8585-12.108-7.4375z" fill="#e9ddaf"/> <path d="m247.19 566.06c-2.244 0.74209-2.0901 3.114-2.2812 3.6875-0.20042 0.60125 4.4008 77.358 4 79.562s-6.9824 11.971-14.418 11.836c-12.707-0.23034-16.642-12.821-17.644-14.024s-5-2.4062-5-2.4062l0.28125 1.3125c0.10486 0.0936 0.22031 0.18906 0.3125 0.28125 4.8101 4.8101 10.438 17.224 22.062 17.625s13.21-13.204 17.219-14.406 9.6142-2.8149 8.8125-7.625 2.8263-66.127-0.78125-70.938c-2.3936-3.1915-8.6099-4.4261-12.562-4.9062z" fill="#504416"/> <path d="m170.36 532.87c3.1822 5.4e-4 6.4942 0.47661 10.021 1.1023 1.2025 0.10021 1.8464-1.2202 0.60125-1.6034-1.3027-0.40084-6.3132-1.4029-8.117-0.90189s-2.5052 1.4029-2.5052 1.4029z" fill="#e9ddaf"/> <path d="m297.82 262.91c2.0598 1.5954 48.101 27.858 48.101 27.858s-43.422-28.053-45.094-29.261c-3.6076-2.6055-7.7381-2.262-3.0063 1.4029z" fill="#e9ddaf"/> <path d="m348.06 657.2c-10.734-0.77081-29.263 1.344-32.186 2.5459-6.5793 2.7056-12.332 9.779-15.004 17.847-0.96801 5.1207 0.27463 5.8189 2.1919 11.685l2.9688-1.4688c-1.7245-2.6921-2.5833-6.7724-2.7108-9.3713 2.4519-5.8752 5.9909-13.184 13.942-14.693 17.302-3.2846 53.704 1.8202 53.423 2.5232 0 0 0.0667-0.75803-0.0629-3.9672-3.1794-0.65575-14.871-4.5475-22.562-5.0998z" fill="#e9ddaf"/> <path d="m309.65 689.14c0.68314-5.458 6.5863-7.8217 11.621-6.8025 0.21159 6.0802 1.4148 9.6031 2.2675 14.03-4.9365-1.5903-10.04-2.7361-13.888-7.2276z" fill="#e9ddaf"/> <path d="m155.65 644.19 3.5314 1.742c4.1295 13.215 11.202 24.691 18.161 36.235 0 0-9.2042-10.005-13.141-17.265-3.1458-5.8021-8.5516-20.712-8.5516-20.712z" fill="#504416"/> <path d="m180.62 682.36s26.924-2.3768 28.629-2.9966c6.705-2.4361-14.967-37.903-16.695-37.616 0 0 13.674 24.77 15.711 33.707 1.3422 5.8882-28.179 5.3802-28.179 5.3802z" fill="#e9ddaf"/> <path d="m127.48 659.02c-3.423-0.7376-4.9309 2.3994-4.9836 4.869 0.76441 3.788 4.982 5.505 9.2584 5.9825z" fill="#e9ddaf"/> <path d="m172.09 297.62c-0.86635 2.1393-1.9387 4.5094-2.9062 5.7188-1.427 1.7838 4.4231 2.2837 8 2.4375 0.6969-1.5067 1.375-3.25 1.375-3.25l-6.4688-4.9062z" fill="#c8ab37"/> <path d="m171.2 384.87c-0.98731 4.4513-0.86049 7.3307 2.5509 10.204 3.4957 2.944-5.3853 28.344-6.2356 32.312s-5.8161 10.317-8.3614 10.487c-1.7203 0.11468-3.7232-6.6512-2.4092-8.7865l2.2675-3.6847s5.2609-27.387 4.535-29.194c-0.76204-1.8965-0.85031-6.519 0.56687-8.2196s7.0859-3.1178 7.0859-3.1178z" fill="#c8ab37"/> <path d="m175.37 369.73-1.4029 4.6096-2.6054 4.6096s1.0021 2.405 2.8059 2.8059 2.8059-1.0021 2.8059-1.0021l0.20042-6.6138 2.8059-2.6054z" fill="#782121"/> <path d="m174.37 385.97 4.0084 1.0021-3.6076 5.6117-2.405-5.2109c-0.63487-1.3756 1.114-1.6255 2.0042-1.4029z" fill="#782121"/> <path d="m173.94 395.56c-1.428 0.0752-3.0669 0.32979-3.9688 1.0312-1.5639 1.2164-8.9687 32.533-11 41.25 0.059 0.0116 0.12901 0.0351 0.1875 0.0312 2.5453-0.16968 7.4934-6.5319 8.3438-10.5 0.81511-3.8038 8.9959-27.28 6.5938-31.812h-0.15625z" fill="#504416"/> <path d="m26.574 467.38 34.133-22.823 37.431-0.66894-27.94 24.522z" fill="#ccc"/> <path d="m84.062 580.38-1.7218 5.4225 20.872-16.352 10.676-13.323z" fill="#333"/> <path d="m20.974 473.13 6.9632 42.616 49.463 1.6737-5.9633-43.111zm11.244 72.241c-1.4001 13.619 1.5954 22.842 4.625 32.031l47.219 2.9688c-2.8042-9.184-7.4796-16.289-3.875-32.594zm10.067 62.759 4.3535 39.204 45.938 5.6875-4.6392-40.12z" fill="#666"/> <path d="m103.75 445.97-32.312 28.344 5.9633 43.111 31.037-23.705zm7.4688 76.125-31.031 25.688c-2.4231 11.979-1.2597 22.882 3.875 32.594l30.438-24.75zm5.2975 63.168-28.579 27.644 4.6392 40.12 28.344-31.75z" fill="#4d4d4d"/> <path d="m32.219 545.38 47.969 2.4062 31.031-25.688c-4.1924-1.9547-6.2853-5.3474-13.374-8.2676l-21.119 17.466-34.214-2.68c-4.0766 5.2156-8.3389 12.606-10.293 16.763z" fill="#808080"/> <path d="m42.286 608.13c3.1178-3.4012 7.4806-5.9858 10.031-7.6864l31.746 3.1518 20.707-19.676s7.0967-0.5885 11.746 1.3383l-28.579 27.644z" fill="#808080"/> <path d="m26.574 467.38-5.5993 5.7502 50.463 1.1788-1.2389-5.8988z" fill="#999"/> <path d="m70.199 468.41 1.2389 5.8988 32.312-28.344-5.6118-2.0771z" fill="#666"/> <path d="m27.938 515.75 12.31 3.469 36.28 1.984 0.87311-3.7793z" fill="#4d4d4d"/> <path d="m77.401 517.42 31.037-23.705-12.069 11.045-19.841 16.439z" fill="#333"/> <path d="m46.639 647.34 6.5294 3.8037 37.98 5.6687 1.4276-3.7849z" fill="#4d4d4d"/> <path d="m92.577 653.03 28.344-31.75-3.1142 6.341-26.657 29.194z" fill="#333"/> <path d="m36.827 577.29 12.538 5.6006 32.975 2.9082 1.7218-5.4225z" fill="#4d4d4d"/> </g> </svg>