<svg width="630" height="630" viewBox="0 0 630 630" xmlns="http://www.w3.org/2000/svg">
    
    <rect width="630" height="630" fill="none"/>

    <path 
        d="
            M 200 2 
            L 430 2 
            A 20 20 0 0 1 450 20  
            L 450 180               
            L 610 180 
            A 20 20 0 0 1 628 200 
            L 628 430 
            A 20 20 0 0 1 610 450 
            L 450 450               
            L 450 610 
            A 20 20 0 0 1 430 628 
            L 200 628 
            A 20 20 0 0 1 180 610 
            L 180 450               
            L 20 450 
            A 20 20 0 0 1 2 430 
            L 2 200 
            A 20 20 0 0 1 20 180 
            L 180 180               
            L 180 20 
            A 20 20 0 0 1 200 2 
            Z
        "
        fill="#8f6fdbff" 
        stroke="#000000"
        stroke-width="5"
    />

    <defs>
        <circle id="hole" r="25" fill="#333333"/> 
    </defs>

    <g>
        <use href="#hole" x="225" y="45"/> <use href="#hole" x="315" y="45"/> <use href="#hole" x="405" y="45"/> 
        <use href="#hole" x="225" y="135"/> <use href="#hole" x="315" y="135"/> <use href="#hole" x="405" y="135"/> 
        
        <use href="#hole" x="45" y="225"/> <use href="#hole" x="135" y="225"/> <use href="#hole" x="225" y="225"/>
        <use href="#hole" x="315" y="225"/> <use href="#hole" x="405" y="225"/> <use href="#hole" x="495" y="225"/> 
        <use href="#hole" x="585" y="225"/> 
        
        <use href="#hole" x="45" y="315"/> <use href="#hole" x="135" y="315"/> <use href="#hole" x="225" y="315"/>
        <use href="#hole" x="315" y="315"/> <use href="#hole" x="405" y="315"/> <use href="#hole" x="495" y="315"/> 
        <use href="#hole" x="585" y="315"/>

        <use href="#hole" x="45" y="405"/> <use href="#hole" x="135" y="405"/> <use href="#hole" x="225" y="405"/>
        <use href="#hole" x="315" y="405"/> <use href="#hole" x="405" y="405"/> <use href="#hole" x="495" y="405"/> 
        <use href="#hole" x="585" y="405"/>

        <use href="#hole" x="225" y="495"/> <use href="#hole" x="315" y="495"/> <use href="#hole" x="405" y="495"/> 
        <use href="#hole" x="225" y="585"/> <use href="#hole" x="315" y="585"/> <use href="#hole" x="405" y="585"/> 
    </g>
</svg>