<svg width="21" height="21" viewBox="0 0 21 21" fill="none" xmlns="http://www.w3.org/2000/svg">
<path d="M19.05 20.625L11.9625 13.5375C11.4 13.9875 10.7531 14.3438 10.0219 14.6063C9.29062 14.8688 8.5125 15 7.6875 15C5.64375 15 3.91406 14.2922 2.49844 12.8766C1.08281 11.4609 0.375 9.73125 0.375 7.6875C0.375 5.64375 1.08281 3.91406 2.49844 2.49844C3.91406 1.08281 5.64375 0.375 7.6875 0.375C9.73125 0.375 11.4609 1.08281 12.8766 2.49844C14.2922 3.91406 15 5.64375 15 7.6875C15 8.5125 14.8688 9.29062 14.6063 10.0219C14.3438 10.7531 13.9875 11.4 13.5375 11.9625L20.625 19.05L19.05 20.625ZM7.6875 12.75C9.09375 12.75 10.2891 12.2578 11.2734 11.2734C12.2578 10.2891 12.75 9.09375 12.75 7.6875C12.75 6.28125 12.2578 5.08594 11.2734 4.10156C10.2891 3.11719 9.09375 2.625 7.6875 2.625C6.28125 2.625 5.08594 3.11719 4.10156 4.10156C3.11719 5.08594 2.625 6.28125 2.625 7.6875C2.625 9.09375 3.11719 10.2891 4.10156 11.2734C5.08594 12.2578 6.28125 12.75 7.6875 12.75Z" fill="#7D7D7D"/>
</svg>
