<svg width="169" height="30" viewBox="0 0 169 30" fill="none" xmlns="http://www.w3.org/2000/svg">
<path d="M5.7 6.59V26H1.5V6.59H5.7ZM19.9542 26H15.7542V9.89C15.7542 9.73 15.6942 9.59 15.5742 9.47C15.4742 9.35 15.3442 9.29 15.1842 9.29H13.5642C13.4042 9.29 13.2642 9.35 13.1442 9.47C13.0442 9.59 12.9942 9.73 12.9942 9.89V26H8.79422V10.25C8.79422 7.61 10.0342 6.29 12.5142 6.29H16.2342C18.7142 6.29 19.9542 7.61 19.9542 10.25V26ZM21.6595 10.16V6.59H32.1595V10.16H29.0095V26H24.8095V10.16H21.6595ZM38.2781 22.52H42.9281V26H34.0781V6.59H42.9281V10.01H38.2781V14.57H42.6281V17.87H38.2781V22.52ZM49.5574 18.05V26H45.3574V6.59H52.8274C55.3074 6.59 56.5474 7.91 56.5474 10.55V12.8C56.5474 14.4 55.9774 15.42 54.8374 15.86C55.8374 16.22 56.3374 17.04 56.3374 18.32V26H52.1374V18.65C52.1374 18.25 51.9474 18.05 51.5674 18.05H49.5574ZM49.5574 9.44V15.11H51.7774C51.9374 15.11 52.0674 15.05 52.1674 14.93C52.2874 14.81 52.3474 14.67 52.3474 14.51V10.04C52.3474 9.88 52.2874 9.74 52.1674 9.62C52.0674 9.5 51.9374 9.44 51.7774 9.44H49.5574ZM64.7941 6.59H68.9941V22.34C68.9941 24.98 67.7541 26.3 65.2741 26.3H61.7941C59.3141 26.3 58.0741 24.98 58.0741 22.34V19.91H62.0641V22.82C62.0641 22.98 62.1141 23.12 62.2141 23.24C62.3341 23.36 62.4741 23.42 62.6341 23.42H64.2241C64.3841 23.42 64.5141 23.36 64.6141 23.24C64.7341 23.12 64.7941 22.98 64.7941 22.82V6.59ZM78.4202 6.59H82.6202V22.34C82.6202 24.98 81.3802 26.3 78.9002 26.3H75.1802C72.7002 26.3 71.4602 24.98 71.4602 22.34V6.59H75.6602V22.7C75.6602 22.86 75.7102 23 75.8102 23.12C75.9302 23.24 76.0702 23.3 76.2302 23.3H77.8502C78.0102 23.3 78.1402 23.24 78.2402 23.12C78.3602 23 78.4202 22.86 78.4202 22.7V6.59ZM89.6941 22.52H94.3441V26H85.4941V6.59H94.3441V10.01H89.6941V14.57H94.0441V17.87H89.6941V22.52ZM102.443 18.29V15.2H107.993V22.34C107.993 24.98 106.753 26.3 104.273 26.3H100.493C98.0134 26.3 96.7734 24.98 96.7734 22.34V10.25C96.7734 7.61 98.0134 6.29 100.493 6.29H104.273C106.753 6.29 107.993 7.61 107.993 10.25V12.08H104.003V9.74C104.003 9.58 103.943 9.44 103.823 9.32C103.723 9.2 103.593 9.14 103.433 9.14H101.543C101.383 9.14 101.243 9.2 101.123 9.32C101.023 9.44 100.973 9.58 100.973 9.74V22.82C100.973 22.98 101.023 23.12 101.123 23.24C101.243 23.36 101.383 23.42 101.543 23.42H103.433C103.593 23.42 103.723 23.36 103.823 23.24C103.943 23.12 104.003 22.98 104.003 22.82V18.29H102.443ZM121.739 10.25V22.34C121.739 24.98 120.499 26.3 118.019 26.3H114.029C111.549 26.3 110.309 24.98 110.309 22.34V10.25C110.309 7.61 111.549 6.29 114.029 6.29H118.019C120.499 6.29 121.739 7.61 121.739 10.25ZM117.539 22.82V9.74C117.539 9.58 117.479 9.44 117.359 9.32C117.259 9.2 117.129 9.14 116.969 9.14H115.079C114.919 9.14 114.779 9.2 114.659 9.32C114.559 9.44 114.509 9.58 114.509 9.74V22.82C114.509 22.98 114.559 23.12 114.659 23.24C114.779 23.36 114.919 23.42 115.079 23.42H116.969C117.129 23.42 117.259 23.36 117.359 23.24C117.479 23.12 117.539 22.98 117.539 22.82ZM135.61 11.69H131.62V10.16C131.62 10 131.56 9.86 131.44 9.74C131.34 9.62 131.21 9.56 131.05 9.56H129.4C129.24 9.56 129.1 9.62 128.98 9.74C128.88 9.86 128.83 10 128.83 10.16V13.61C128.83 13.77 128.88 13.91 128.98 14.03C129.1 14.15 129.24 14.21 129.4 14.21H132.1C134.58 14.25 135.82 15.57 135.82 18.17V22.34C135.82 24.98 134.58 26.3 132.1 26.3H128.56C126.08 26.3 124.84 24.98 124.84 22.34V20.33H128.83V22.49C128.83 22.65 128.88 22.79 128.98 22.91C129.1 23.03 129.24 23.09 129.4 23.09H131.26C131.42 23.09 131.55 23.03 131.65 22.91C131.77 22.79 131.83 22.65 131.83 22.49V18.68C131.83 18.52 131.77 18.38 131.65 18.26C131.55 18.14 131.42 18.08 131.26 18.08H128.56C126.08 18.08 124.84 16.76 124.84 14.12V10.25C124.84 7.61 126.08 6.29 128.56 6.29H131.89C134.37 6.29 135.61 7.61 135.61 10.25V11.69Z" fill="#00FFB2"/>
<path d="M158.338 14.1164C158.221 14.0002 158.084 13.9081 157.932 13.8452C157.78 13.7823 157.618 13.7499 157.454 13.7499C157.289 13.7498 157.127 13.7821 156.975 13.8449C156.823 13.9076 156.686 13.9997 156.569 14.1157C156.453 14.2318 156.361 14.3696 156.298 14.5212C156.235 14.6729 156.203 14.8355 156.203 14.9997C156.203 15.1638 156.235 15.3264 156.298 15.4781C156.361 15.6299 156.453 15.7677 156.569 15.8839C156.803 16.1184 157.121 16.2502 157.453 16.2504C157.784 16.2505 158.102 16.1189 158.337 15.8845C158.571 15.6501 158.703 15.3321 158.703 15.0005C158.703 14.669 158.572 14.3509 158.338 14.1164ZM159.221 11.4651C159.337 11.3457 159.474 11.2505 159.627 11.185C159.78 11.1195 159.944 11.085 160.109 11.0835C160.275 11.0821 160.44 11.1137 160.594 11.1766C160.747 11.2394 160.887 11.3322 161.004 11.4496C161.122 11.567 161.214 11.7065 161.277 11.8602C161.34 12.0138 161.372 12.1784 161.37 12.3444C161.369 12.5103 161.334 12.6744 161.269 12.8269C161.203 12.9794 161.108 13.1173 160.989 13.2326C160.753 13.4603 160.437 13.5863 160.109 13.5834C159.782 13.5806 159.468 13.4491 159.236 13.2174C159.005 12.9856 158.873 12.6721 158.87 12.3444C158.868 12.0166 158.994 11.7009 159.221 11.4651ZM163.64 14.1164C163.525 13.997 163.387 13.9017 163.234 13.8362C163.082 13.7707 162.918 13.7362 162.752 13.7348C162.586 13.7334 162.421 13.765 162.268 13.8278C162.114 13.8907 161.974 13.9835 161.857 14.1009C161.74 14.2182 161.647 14.3578 161.584 14.5114C161.521 14.665 161.489 14.8296 161.491 14.9956C161.492 15.1616 161.527 15.3256 161.592 15.4781C161.658 15.6306 161.753 15.7685 161.873 15.8839C162.108 16.1116 162.424 16.2375 162.752 16.2347C163.079 16.2319 163.393 16.1004 163.625 15.8686C163.857 15.6369 163.988 15.3234 163.991 14.9956C163.994 14.6679 163.868 14.3521 163.64 14.1164ZM159.221 16.7676C159.337 16.6515 159.475 16.5595 159.627 16.4967C159.779 16.434 159.941 16.4017 160.105 16.4017C160.27 16.4018 160.432 16.4342 160.584 16.4971C160.736 16.56 160.873 16.6521 160.989 16.7682C161.105 16.8844 161.197 17.0222 161.26 17.1739C161.323 17.3256 161.355 17.4882 161.355 17.6524C161.355 17.8166 161.323 17.9792 161.26 18.1308C161.197 18.2825 161.105 18.4203 160.989 18.5364C160.754 18.7707 160.436 18.9024 160.105 18.9022C159.773 18.9021 159.455 18.7703 159.221 18.5357C158.986 18.3012 158.855 17.9831 158.855 17.6515C158.855 17.32 158.987 17.002 159.221 16.7676ZM146.5 16.2501H144V13.7501H146.5V11.2501H149V13.7501H151.5V16.2501H149V18.7501H146.5V16.2501Z" fill="#00FFB2"/>
<path fill-rule="evenodd" clip-rule="evenodd" d="M147.75 6.25C145.429 6.25 143.204 7.17187 141.563 8.81282C139.922 10.4538 139 12.6794 139 15C139 17.3206 139.922 19.5462 141.563 21.1872C143.204 22.8281 145.429 23.75 147.75 23.75H160.25C161.399 23.75 162.537 23.5237 163.598 23.0839C164.66 22.6442 165.625 21.9997 166.437 21.1872C167.25 20.3747 167.894 19.4101 168.334 18.3485C168.774 17.2869 169 16.1491 169 15C169 13.8509 168.774 12.7131 168.334 11.6515C167.894 10.5899 167.25 9.62533 166.437 8.81282C165.625 8.0003 164.66 7.35578 163.598 6.91605C162.537 6.47633 161.399 6.25 160.25 6.25H147.75ZM160.25 8.75H147.75C146.092 8.75 144.503 9.40848 143.331 10.5806C142.158 11.7527 141.5 13.3424 141.5 15C141.5 16.6576 142.158 18.2473 143.331 19.4194C144.503 20.5915 146.092 21.25 147.75 21.25H160.25C161.908 21.25 163.497 20.5915 164.669 19.4194C165.842 18.2473 166.5 16.6576 166.5 15C166.5 13.3424 165.842 11.7527 164.669 10.5806C163.497 9.40848 161.908 8.75 160.25 8.75Z" fill="#00FFB2"/>
</svg>
